<svg xmlns="http://www.w3.org/2000/svg" width="509" height="529" xmlns:xlink="http://www.w3.org/1999/xlink"><path d="M175.449,380.5177c-1.309,0.193 -2.849,0.295 -3.161,1.854c-0.241,1.208 -0.15,2.451 0.574,3.499c1.237,1.79 3.075,2.835 5.289,2.466c1.979,-0.329 4.698,-2.123 4.698,-4.351c0,-1.256 -0.905,-2.52 -1.653,-3.46c-0.802,-1.007 -1.495,-2.067 -2.505,-2.891c-1.362,-1.111 -2.463,-1.22 -3.688,0.09c-0.67,0.717 -1.304,1.695 -1.597,2.634c-0.145,0.463 -0.038,0.834 -0.038,1.298c0,0.618 -0.115,-0.294 0,-0.6" fill="none" stroke-opacity="0.5" stroke="#00adb5" stroke-linecap="round" stroke-linejoin="round" stroke-miterlimit="10"></path><path d="M182.232,384.0567c1.114,0.989 2.058,1.883 4.028,1.931c1.379,0.034 2.757,-0.31 4.049,-0.681c0.926,-0.265 3.892,-1.67 1.488,-1.783" fill="none" stroke-opacity="0.5" stroke="#00adb5" stroke-linecap="round" stroke-linejoin="round" stroke-miterlimit="10"></path><path d="M193.718,375.4297c-1.47,1.623 -3.498,4.804 -2.736,7.242c0.268,0.857 0.657,1.434 1.16,2.167c1.014,1.474 2.584,1.014 4.009,0.629c1.032,-0.279 2.259,-1.158 2.655,-2.158c0.545,-1.38 -0.592,-3.538 -1.542,-4.488c-1.061,-1.061 -1.901,-2.352 -3.083,-3.281c-0.315,-0.247 -0.554,-0.515 -0.964,-0.424c-0.461,0.103 -0.651,0.544 -0.038,0.544" fill="none" stroke-opacity="0.5" stroke="#00adb5" stroke-linecap="round" stroke-linejoin="round" stroke-miterlimit="10"></path><path d="M297.629,153.0087c-1.309,0.194 -2.849,0.296 -3.16,1.855c-0.242,1.208 -0.15,2.451 0.574,3.499c1.237,1.79 3.075,2.835 5.288,2.466c1.98,-0.33 4.698,-2.123 4.698,-4.351c0,-1.256 -0.904,-2.52 -1.653,-3.46c-0.802,-1.008 -1.495,-2.067 -2.505,-2.891c-1.362,-1.111 -2.462,-1.22 -3.687,0.09c-0.67,0.717 -1.304,1.695 -1.598,2.634c-0.144,0.463 -0.038,0.834 -0.038,1.298c0,0.618 -0.115,-0.294 0,-0.6" fill="none" stroke-opacity="0.5" stroke="#00adb5" stroke-linecap="round" stroke-linejoin="round" stroke-miterlimit="10"></path><path d="M304.413,156.5487c1.114,0.989 2.058,1.883 4.027,1.931c1.379,0.034 2.758,-0.31 4.05,-0.681c0.925,-0.265 3.891,-1.67 1.488,-1.783" fill="none" stroke-opacity="0.5" stroke="#00adb5" stroke-linecap="round" stroke-linejoin="round" stroke-miterlimit="10"></path><path d="M315.898,147.9217c-1.469,1.623 -3.498,4.804 -2.736,7.242c0.268,0.857 0.657,1.434 1.16,2.166c1.014,1.474 2.584,1.015 4.009,0.63c1.033,-0.279 2.26,-1.158 2.655,-2.158c0.546,-1.381 -0.592,-3.538 -1.542,-4.488c-1.061,-1.061 -1.901,-2.352 -3.083,-3.281c-0.315,-0.247 -0.553,-0.515 -0.964,-0.424c-0.461,0.103 -0.651,0.544 -0.038,0.544" fill="none" stroke-opacity="0.5" stroke="#00adb5" stroke-linecap="round" stroke-linejoin="round" stroke-miterlimit="10"></path><path d="M184.888,105.8217c7.547,-3.595 13.647,-9.54 19.782,-15.146c4.821,-4.406 9.877,-8.759 15.198,-12.561c1.05,-0.751 2.533,-2.26 3.952,-1.617c1.407,0.638 2.217,2.374 3.329,3.402c2.737,2.532 5.199,5.626 7.449,8.601c2.478,3.275 -1.237,5.088 -3.534,7.232c-2.609,2.436 -5.101,4.948 -7.95,7.097c-2.709,2.043 -4.885,4.859 -7.365,7.172c-3.779,3.525 -7.314,7.278 -11.082,10.806c-2.243,2.1 -4.817,3.815 -6.977,5.99c-0.757,0.762 -1.457,1.77 -2.33,2.404c-0.701,0.51 -1.671,-1.45 -1.921,-1.819c-1.981,-2.93 -5.05,-4.935 -6.99,-7.999c-1.219,-1.927 -2.04,-4.305 -3.5,-6.065c-0.697,-0.84 -2.439,-2.731 -1.676,-3.958c0.78,-1.253 2.993,-1.853 4.2,-2.75c0.941,-0.7 2.085,-1.563 3.156,-2.05c0.778,-0.353 1.542,-0.98 2.238,-1.462c1.832,-1.27 -0.109,-0.727 -1.348,-0.255" fill="none" stroke-opacity="0.5" stroke="#00adb5" stroke-linecap="round" stroke-linejoin="round" stroke-miterlimit="10"></path><path d="M186.041,111.5747c4.594,2.844 8.715,6.96 12.302,11.019c0.09,0.103 0.963,0.711 0.83,0.936c-0.257,0.435 -3.239,-1.528 -3.523,-1.724" fill="none" stroke-opacity="0.5" stroke="#00adb5" stroke-linecap="round" stroke-linejoin="round" stroke-miterlimit="10"></path><path d="M190.595,107.4627c3.725,1.066 5.945,3.096 8.952,5.267c1.34,0.967 2.704,1.84 3.906,2.978c0.565,0.534 0.967,1.237 1.489,1.813c0.715,0.789 -2.205,-0.916 -2.549,-1.113" fill="none" stroke-opacity="0.5" stroke="#00adb5" stroke-linecap="round" stroke-linejoin="round" stroke-miterlimit="10"></path><path d="M196.007,104.2747c2.607,2.353 5.227,4.673 7.915,6.93c1.021,0.858 2.181,1.645 3.063,2.656c1.566,1.793 -0.485,-0.534 -1.181,-1.191" fill="none" stroke-opacity="0.5" stroke="#00adb5" stroke-linecap="round" stroke-linejoin="round" stroke-miterlimit="10"></path><path d="M199.659,102.0327c1.934,1.175 3.953,2.314 5.59,3.899c0.672,0.651 1.229,1.417 1.947,2.019c0.884,0.742 1.659,1.608 2.549,2.329c1.268,1.027 1.459,1.327 -0.047,0.038" fill="none" stroke-opacity="0.5" stroke="#00adb5" stroke-linecap="round" stroke-linejoin="round" stroke-miterlimit="10"></path><path d="M204.367,98.5807c2.133,1.67 4.108,3.365 5.891,5.401c0.79,0.902 1.427,1.943 2.429,2.635c0.919,0.634 1.562,0.817 0.487,-0.213" fill="none" stroke-opacity="0.5" stroke="#00adb5" stroke-linecap="round" stroke-linejoin="round" stroke-miterlimit="10"></path><path d="M208.9,95.0637c1.878,1.411 3.729,2.699 5.23,4.517c0.686,0.832 1.228,1.788 1.995,2.555c1.558,1.559 0.487,0.773 -0.64,-0.285" fill="none" stroke-opacity="0.5" stroke="#00adb5" stroke-linecap="round" stroke-linejoin="round" stroke-miterlimit="10"></path><path d="M213.08,91.4137c2.637,2.522 4.845,5.476 7.486,7.967c1.779,1.678 -0.769,-1.01 -1.186,-1.488" fill="none" stroke-opacity="0.5" stroke="#00adb5" stroke-linecap="round" stroke-linejoin="round" stroke-miterlimit="10"></path><path d="M218.184,88.5117c2.22,-0.906 4.522,-1.986 5.714,-4.201c0.329,-0.61 0.753,-1.142 0.888,-1.83c0.186,-0.945 0.149,-0.539 -0.551,0.072" fill="none" stroke-opacity="0.5" stroke="#00adb5" stroke-linecap="round" stroke-linejoin="round" stroke-miterlimit="10"></path><path d="M221.757,91.5597c1.76,-1.633 3.727,-3.417 5.016,-5.489c0.643,-1.034 1.868,-2.296 0.155,-0.801" fill="none" stroke-opacity="0.5" stroke="#00adb5" stroke-linecap="round" stroke-linejoin="round" stroke-miterlimit="10"></path><path d="M227.398,94.9817c1.603,-1.742 3.03,-3.363 4.506,-5.184c0.476,-0.589 1.929,-1.353 0.181,-0.886" fill="none" stroke-opacity="0.5" stroke="#00adb5" stroke-linecap="round" stroke-linejoin="round" stroke-miterlimit="10"></path><path d="M226.123,94.1007c1.678,-1.438 3.575,-3.112 4.905,-4.927c0.355,-0.485 0.628,-1.024 0.953,-1.528c0.544,-0.843 0.578,-0.558 -0.247,-0.471" fill="none" stroke-opacity="0.5" stroke="#00adb5" stroke-linecap="round" stroke-linejoin="round" stroke-miterlimit="10"></path><path d="M190.571,114.4797c8.36,-3.396 10.423,-12.613 17.235,-17.825c0.829,-0.634 1.502,-1.339 2.469,-1.778c0.646,-0.293 1.444,-0.434 2.032,-0.809c0.359,-0.23 3.338,-2.506 1.268,-1.565" fill="none" stroke-opacity="0.5" stroke="#00adb5" stroke-linecap="round" stroke-linejoin="round" stroke-miterlimit="10"></path><path d="M186.678,112.0147c0.939,-1.141 1.772,-2.117 2.962,-2.942c0.195,-0.136 0.496,-0.158 0.657,-0.339c0.318,-0.358 0.8,-0.882 0.922,-1.343c0.483,-1.819 2.841,-1.483 4.094,-2.395c1.191,-0.867 2.338,-1.746 3.553,-2.603c1.338,-0.944 1.957,-1.772 3.032,-2.982c0.987,-1.112 1.946,-2.236 2.991,-3.288c0.855,-0.861 2.198,-1.644 2.742,-2.746c0.614,-1.243 2.184,-2.666 3.597,-2.436c0.485,0.08 4.05,2.146 1.72,0.825" fill="none" stroke-opacity="0.5" stroke="#00adb5" stroke-linecap="round" stroke-linejoin="round" stroke-miterlimit="10"></path><path d="M194.243,116.4597c6.283,-3.313 9.769,-10.538 14.012,-15.996c1.563,-2.01 3.796,-3.346 5.432,-5.321c0.7,-0.845 2.245,-1.742 0.448,-1.727" fill="none" stroke-opacity="0.5" stroke="#00adb5" stroke-linecap="round" stroke-linejoin="round" stroke-miterlimit="10"></path><path d="M196.486,118.5067c5.693,-3.5 9.337,-10.011 13.479,-15.17c1.884,-2.348 3.703,-4.744 5.61,-7.073c0.87,-1.061 2.386,-1.724 0.44,-0.637" fill="none" stroke-opacity="0.5" stroke="#00adb5" stroke-linecap="round" stroke-linejoin="round" stroke-miterlimit="10"></path><path d="M198.729,122.1587c3.552,-3.464 6.42,-7.202 9.326,-11.209c1.767,-2.436 3.295,-5.175 5.37,-7.368c1.191,-1.259 2.107,-2.733 3.188,-4.067c0.436,-0.538 0.736,-1.164 1.184,-1.697c1.008,-1.201 0.305,-0.115 -0.397,0.537" fill="none" stroke-opacity="0.5" stroke="#00adb5" stroke-linecap="round" stroke-linejoin="round" stroke-miterlimit="10"></path><path d="M199.564,123.6767c1.768,-1.732 4.358,-3.398 5.537,-5.645c0.428,-0.815 1.487,-2.784 2.23,-3.283c0.983,-0.66 1.451,-2.063 2.165,-2.945c0.745,-0.919 1.474,-1.816 2.282,-2.69c0.757,-0.82 1,-2.259 1.937,-2.964c1.045,-0.786 1.553,-2.003 2.387,-2.941c0.721,-0.812 2.094,-1.653 2.989,-2.274c0.496,-0.343 0.842,-0.812 1.404,-1.067c1.14,-0.518 0.4,-0.253 -0.643,-0.292" fill="none" stroke-opacity="0.5" stroke="#00adb5" stroke-linecap="round" stroke-linejoin="round" stroke-miterlimit="10"></path><path d="M218.041,89.1607c1.462,0.385 3.265,0.65 4.598,1.447c0.86,0.514 1.609,1.03 0.043,0.094" fill="none" stroke-opacity="0.5" stroke="#00adb5" stroke-linecap="round" stroke-linejoin="round" stroke-miterlimit="10"></path><path d="M219.559,86.7197c2.086,0.545 3.561,1.156 5.261,2.265c1.113,0.725 0.934,0.524 -0.224,-0.174" fill="none" stroke-opacity="0.5" stroke="#00adb5" stroke-linecap="round" stroke-linejoin="round" stroke-miterlimit="10"></path><path d="M222.09,84.2567c1.791,1.007 3.529,2.152 5.381,3.029c1.089,0.516 0.518,0.48 -0.323,0.074" fill="none" stroke-opacity="0.5" stroke="#00adb5" stroke-linecap="round" stroke-linejoin="round" stroke-miterlimit="10"></path><path d="M223.531,82.2887c1.883,0.857 3.62,1.711 5.354,2.79c0.791,0.492 0.073,0.524 -0.527,0.126" fill="none" stroke-opacity="0.5" stroke="#00adb5" stroke-linecap="round" stroke-linejoin="round" stroke-miterlimit="10"></path><path d="M218.965,88.3027c1.423,-1.692 2.85,-3.295 4.146,-5.029c0.368,-0.492 2.61,-3.235 1.641,-1.832" fill="none" stroke-opacity="0.5" stroke="#00adb5" stroke-linecap="round" stroke-linejoin="round" stroke-miterlimit="10"></path><path d="M220.46,91.2727c1.851,-1.637 4.519,-3.819 5.117,-6.265c0.176,-0.719 0.557,-1.438 1.116,-1.934c0.567,-0.502 1.16,-0.728 0.313,0.118" fill="none" stroke-opacity="0.5" stroke="#00adb5" stroke-linecap="round" stroke-linejoin="round" stroke-miterlimit="10"></path><path d="M218.975,91.2177c1.974,-2.127 3.662,-3.556 4.777,-6.175c0.29,-0.681 0.622,-1.244 1.097,-1.78c0.504,-0.567 1.227,-1.098 0.254,-0.083" fill="none" stroke-opacity="0.5" stroke="#00adb5" stroke-linecap="round" stroke-linejoin="round" stroke-miterlimit="10"></path><path d="M226.31,92.2647c0.909,0.576 1.821,1.11 2.766,1.59c0.39,0.198 -0.093,-0.185 -0.259,-0.248" fill="none" stroke-opacity="0.5" stroke="#00adb5" stroke-linecap="round" stroke-linejoin="round" stroke-miterlimit="10"></path><path d="M228.082,89.4167c0.061,0.052 3.635,3.115 3.001,2.432" fill="none" stroke-opacity="0.5" stroke="#00adb5" stroke-linecap="round" stroke-linejoin="round" stroke-miterlimit="10"></path><path d="M230.205,88.3067c0.788,0.758 3.203,2.977 2.353,2.288" fill="none" stroke-opacity="0.5" stroke="#00adb5" stroke-linecap="round" stroke-linejoin="round" stroke-miterlimit="10"></path><path d="M225.254,93.4737c1.307,-1.216 4.172,-3.627 4.874,-5.497c0.277,-0.737 1.544,-1.684 0.352,-0.671" fill="none" stroke-opacity="0.5" stroke="#00adb5" stroke-linecap="round" stroke-linejoin="round" stroke-miterlimit="10"></path><path d="M225.419,93.8367c0.124,0.1 2.623,2.791 3.156,1.486c0.272,-0.666 0.626,-1.534 1.293,-1.901c1.171,-0.644 1.387,-2.673 2.585,-3.217c1.36,-0.618 1.233,-1.653 -0.033,-2.02c-0.498,-0.145 -0.105,-1.125 -0.622,-1.048c-0.473,0.071 -0.723,-0.104 -1.252,-0.007" fill="none" stroke-opacity="0.5" stroke="#00adb5" stroke-linecap="round" stroke-linejoin="round" stroke-miterlimit="10"></path><path d="M217.876,88.7977c0.857,1.638 1.019,2.231 2.402,2.914c0.373,0.185 0.861,-0.071 1.144,0.073c0.56,0.284 1.668,0.29 2.087,-0.226c0.841,-1.039 1.151,-1.709 2.439,-2.341c0.814,-0.398 1.468,-1.339 1.844,-2.118c0.413,-0.857 1.158,-1.502 1.595,-2.362c0.186,-0.366 -1.315,-1.309 -1.329,-1.943c-0.003,-0.18 -1.785,-0.185 -2.082,-0.335c-0.359,-0.183 -0.524,-0.44 -0.696,-0.819c-0.252,-0.555 -0.698,0.134 -1.375,0.186" fill="none" stroke-opacity="0.5" stroke="#00adb5" stroke-linecap="round" stroke-linejoin="round" stroke-miterlimit="10"></path><path d="M188.197,109.5737c2.024,0.769 3.79,1.761 5.612,2.859c1.583,0.954 3.371,1.461 4.943,2.385c1.119,0.658 2.281,2.16 3.107,3.146c0.275,0.329 0.481,0.636 0.676,1.007c0.448,0.85 -0.018,-1.205 -0.065,-1.43" fill="none" stroke-opacity="0.5" stroke="#00adb5" stroke-linecap="round" stroke-linejoin="round" stroke-miterlimit="10"></path><path d="M207.745,94.1277c0.562,0.59 2.835,3.844 2.386,1.398" fill="none" stroke-opacity="0.5" stroke="#00adb5" stroke-linecap="round" stroke-linejoin="round" stroke-miterlimit="10"></path><path d="M212.424,319.9987c0.241,1.239 0.853,2.044 1.328,3.172c0.323,0.767 0.927,1.362 1.264,2.115c0.363,0.813 0.908,1.769 1.414,2.493c0.435,0.62 0.719,1.208 1.268,1.757c0.968,0.968 1.701,2.123 2.675,3.078c1.415,1.388 3.811,3.199 5.872,3.085c0.662,-0.037 1.395,0.168 2.045,0.07c0.557,-0.084 1.234,-0.112 1.792,-0.016c0.917,0.159 1.913,-0.001 2.79,0.189c0.474,0.103 0.99,-0.047 1.469,0.042c0.622,0.115 1.351,0.144 1.984,0.144c2.074,0 4.143,-0.013 6.212,-0.275c1.121,-0.143 2.231,0.229 3.341,0.032c1.041,-0.186 2.428,0.006 3.408,-0.423c1.204,-0.527 2.401,-1.355 3.331,-2.285c0.467,-0.466 0.82,-1.023 1.136,-1.6c0.415,-0.757 0.646,-1.574 1.063,-2.329c1.453,-2.635 2.282,-5.568 3.459,-8.314c0.277,-0.648 0.733,-1.172 1.066,-1.77c0.084,-0.151 0.122,-0.344 0.259,-0.49c0.513,-0.543 -0.47,-0.601 -0.922,-0.806" fill="none" stroke-opacity="0.5" stroke="#00adb5" stroke-linecap="round" stroke-linejoin="round" stroke-miterlimit="10"></path><path d="M212.193,320.1137c1.03,-1.346 1.903,-2.336 3.399,-3.097c1.252,-0.638 2.551,-1.395 3.683,-2.228c1.739,-1.278 4.133,-1.848 6.25,-2.233c2.305,-0.419 4.573,-0.909 6.919,-0.909c0.725,0 1.443,0.218 2.169,0.23c0.869,0.015 1.74,0.042 2.605,0.116c1.328,0.113 2.69,0.086 4.019,0.115c1.855,0.04 3.631,1 5.485,1.149c1.104,0.088 2.39,0.253 3.463,0.553c0.402,0.113 0.86,0.189 1.235,0.371c0.467,0.227 0.794,0.611 1.223,0.877c1.383,0.861 2.93,1.266 4.425,1.92c0.459,0.201 1.247,0.544 1.754,0.544c0.699,0 0.662,1.29 0.662,0" fill="none" stroke-opacity="0.5" stroke="#00adb5" stroke-linecap="round" stroke-linejoin="round" stroke-miterlimit="10"></path><path d="M259.369,318.3287c-0.854,1.145 -1.463,1.581 -2.675,2.249c-0.952,0.525 -2.006,0.897 -3.072,1.092c-0.996,0.182 -2.083,0.325 -3.092,0.406c-0.839,0.067 -1.696,-0.03 -2.553,0.067c-1.94,0.221 -3.896,0.721 -5.767,1.268c-2.67,0.78 -5.249,0.861 -8.007,1.011c-3.01,0.163 -6.029,-0.067 -8.979,-0.679c-0.995,-0.206 -2.047,-0.021 -3.059,-0.06c-1.116,-0.044 -2.209,-0.351 -3.258,-0.714c-0.442,-0.153 -0.849,-0.387 -1.312,-0.493c-0.542,-0.123 -1.094,-0.075 -1.632,-0.205c-0.75,-0.181 -1.626,-0.508 -2.259,-0.947c-0.276,-0.191 -0.69,-0.348 -0.906,-0.637c-0.063,-0.084 -0.144,-0.271 -0.144,-0.371c0,-0.238 -0.195,-0.178 0.115,0.029" fill="none" stroke-opacity="0.5" stroke="#00adb5" stroke-linecap="round" stroke-linejoin="round" stroke-miterlimit="10"></path><path d="M234.601,330.0217c0.701,-0.078 1.627,-0.065 1.337,-0.966c-0.093,-0.29 -0.327,-0.321 -0.576,-0.404c-0.741,-0.247 -2.067,0.232 -2.346,1.005c-0.499,1.388 0.447,2.888 1.933,2.407c0.405,-0.131 1.122,-0.417 1.38,-0.784c0.308,-0.441 -0.155,-0.311 -0.461,-0.74" fill="none" stroke-opacity="0.5" stroke="#00adb5" stroke-linecap="round" stroke-linejoin="round" stroke-miterlimit="10"></path><path d="M232.469,328.5237c1.118,-0.448 1.689,-0.633 2.82,-0.633c0.455,0 0.683,-0.032 1.084,0.23c0.664,0.434 0.892,1.258 0.823,1.984c-0.059,0.613 -0.261,1.453 -0.477,2.035c-0.16,0.433 -0.557,0.508 -0.963,0.589c-0.371,0.074 -1.18,-0.133 -1.472,0.029c-0.31,0.172 -1.258,0.23 -1.498,-0.09c-0.22,-0.294 -0.457,-0.42 -0.618,-0.777c-0.153,-0.341 -0.222,-0.666 -0.345,-1.005c-0.169,-0.465 -0.473,-1.736 0.157,-2.016c0.369,-0.164 0.527,-0.262 0.95,-0.262c0.12,0 0.223,0.089 0.346,0.089c0.177,0 -0.342,-0.115 -0.519,-0.115" fill="none" stroke-opacity="0.5" stroke="#00adb5" stroke-linecap="round" stroke-linejoin="round" stroke-miterlimit="10"></path><path d="M234.485,323.9157c0.813,-1.05 1.554,-2.134 2.394,-3.155c0.451,-0.549 1.011,-1.021 1.498,-1.546c1.392,-1.503 2.81,-3.149 3.872,-4.906c1.045,-1.73 2.472,-3.615 4.022,-4.915c0.819,-0.687 1.551,-1.445 2.263,-2.237c0.691,-0.768 1.009,-1.841 1.664,-2.653c0.507,-0.628 3.825,-4.903 4.403,-2.304c0.227,1.022 -0.769,1.736 -1.395,2.362c-0.71,0.71 -1.424,1.612 -2.029,2.419c-0.583,0.778 -1.293,1.462 -1.859,2.247c-0.771,1.067 -2.174,1.831 -2.736,3.04c-0.464,0.997 -1.234,1.799 -1.812,2.723c-0.8,1.281 -1.738,2.351 -2.681,3.523c-0.748,0.929 -1.919,1.693 -2.448,2.752c-0.443,0.885 -1.227,1.258 -1.943,1.831c-0.311,0.249 -0.69,0.388 -0.966,0.733c-0.092,0.115 -0.257,0.247 -0.343,0.118c-0.049,-0.073 -0.236,0.092 -0.201,0.173c0.123,0.287 -0.176,-0.689 -0.205,-0.781" fill="none" stroke-opacity="0.5" stroke="#00adb5" stroke-linecap="round" stroke-linejoin="round" stroke-miterlimit="10"></path><path d="M234.024,324.2037c0.221,0.112 1.613,1.169 1.613,0.317c0,-0.258 0.332,-0.688 0.448,-0.95c0.089,-0.199 -0.707,-0.009 -0.825,0.144c-0.155,0.198 -0.455,0.36 0.032,0.374c0.374,0.011 0.666,-0.15 0.95,-0.371c0.082,-0.064 1.181,0.11 0.202,0.083c-0.521,-0.015 -1.027,0 -1.527,0c-0.432,0 0.444,-0.115 0.57,-0.115c0.101,0 -0.73,0.494 -0.874,0.333c-0.035,-0.04 -0.095,-0.148 0.045,-0.218" fill="none" stroke-opacity="0.5" stroke="#00adb5" stroke-linecap="round" stroke-linejoin="round" stroke-miterlimit="10"></path><path d="M215.707,319.9417c0.065,0.034 2.123,1.112 2.131,0.979c0.01,-0.161 -0.105,-0.302 -0.025,-0.461c0.348,-0.697 0.799,-0.362 1.398,-0.093c0.468,0.211 -0.242,-2.12 1.168,-1.136c0.729,0.509 0.923,0.428 0.803,-0.425c-0.09,-0.646 0.133,-0.648 0.688,-0.58c0.378,0.047 0.649,0.129 0.864,-0.23c0.262,-0.436 0.557,-0.684 1.092,-0.496c0.443,0.156 0.837,0.595 1.142,0.035c0.134,-0.246 0.021,-0.983 0.445,-0.841c0.266,0.088 0.616,0.435 0.918,0.326c0.23,-0.083 0.406,-0.794 0.666,-0.682c0.271,0.118 0.547,0.632 0.89,0.509c0.165,-0.059 0.471,-0.599 0.147,-0.534" fill="none" stroke-opacity="0.5" stroke="#00adb5" stroke-linecap="round" stroke-linejoin="round" stroke-miterlimit="10"></path><path d="M223.829,318.9047c0.714,0.581 3.388,3.684 4.173,1.366c0.141,-0.415 0.163,-1.237 0.557,-0.557c0.324,0.561 0.813,0.95 1.344,0.42c0.352,-0.352 0.508,-0.949 1.011,-1.133c0.462,-0.169 0.8,0.699 1.184,0.192c0.31,-0.409 0.16,-1.112 -0.294,-1.357c-0.149,-0.081 -0.191,0.197 -0.256,0.262" fill="none" stroke-opacity="0.5" stroke="#00adb5" stroke-linecap="round" stroke-linejoin="round" stroke-miterlimit="10"></path><path d="M229.992,315.3337c1.113,-0.192 2.514,-0.581 3.36,0.416c0.393,0.461 0.355,1.051 0.096,1.574c-0.189,0.382 -0.698,0.573 -1.024,0.198c-0.266,-0.307 0.284,-0.814 0.48,-1.001c0.675,-0.643 1.674,0.386 1.885,1.085c0.177,0.583 -1.418,1.935 -1.225,1.356" fill="none" stroke-opacity="0.5" stroke="#00adb5" stroke-linecap="round" stroke-linejoin="round" stroke-miterlimit="10"></path><path d="M248.713,317.2917c0.33,-0.114 2.456,-0.798 2.048,0.333c-0.209,0.58 -1.011,0.891 -1.536,1.081c-0.249,0.09 -0.891,0.075 -0.474,-0.288c0.361,-0.313 0.87,-0.461 1.344,-0.422c1.849,0.15 -0.736,2.274 -1.267,2.567c-1.031,0.568 -2.434,1.167 -3.514,0.473" fill="none" stroke-opacity="0.5" stroke="#00adb5" stroke-linecap="round" stroke-linejoin="round" stroke-miterlimit="10"></path><path d="M237.365,313.8927c0.439,0.714 0.966,1.43 1.341,2.18c0.129,0.258 -0.429,-0.403 -0.56,-0.659c-0.035,-0.068 -0.275,-0.825 -0.298,-0.82c-0.28,0.063 -0.346,1.347 -0.422,1.584c-0.359,1.122 -1.246,0.692 -2.115,0.608c-1.053,-0.101 -1.524,0.937 -2.106,1.6c-0.466,0.531 -0.649,0.694 -0.333,1.325c0.256,0.511 0.362,1.007 0,1.469c-0.282,0.361 -0.635,0.589 -0.976,0.887c-0.312,0.272 0.136,0.227 0.077,0.064c-0.16,-0.448 -1.146,-0.355 -1.469,-0.333c-1.199,0.079 -2.42,-0.222 -3.597,-0.147c-0.625,0.039 -1.214,0.388 -1.833,0.48c-0.63,0.093 0.202,0.639 0.438,0.796c0.406,0.271 -0.794,-0.575 -1.235,-0.784c-0.74,-0.35 -1.422,-0.62 -1.805,-1.395c-0.384,-0.776 -0.721,-1.305 -1.37,-1.875c-0.223,-0.197 -0.25,-0.495 -0.141,-0.762c0.253,-0.617 0.814,-1.119 1.37,-1.453" fill="none" stroke-opacity="0.5" stroke="#00adb5" stroke-linecap="round" stroke-linejoin="round" stroke-miterlimit="10"></path><path d="M237.25,316.1977c-1.444,-1.008 -2.635,-1.442 -4.333,-1.671c-0.597,-0.08 -1.233,-0.493 -1.622,-0.95c-0.346,-0.406 -0.15,-0.298 -0.557,0.252c-0.556,0.753 -0.969,0.078 -1.68,0.276c-1.089,0.303 -2.024,1.316 -3.13,1.504c-0.303,0.051 -0.23,-0.455 -0.608,-0.237c-0.637,0.367 -1.124,0.715 -1.869,0.832c-0.45,0.071 -1.304,0.367 -1.235,0.915" fill="none" stroke-opacity="0.5" stroke="#00adb5" stroke-linecap="round" stroke-linejoin="round" stroke-miterlimit="10"></path><path d="M247.042,316.1977c1.394,0.134 2.805,0.117 4.193,0.265c0.488,0.052 0.738,0.25 1.081,0.57c0.31,0.288 0.794,0.968 1.239,1.005c0.641,0.053 0.972,-0.213 1.571,-0.4c0.36,-0.113 1.51,0 1.133,0" fill="none" stroke-opacity="0.5" stroke="#00adb5" stroke-linecap="round" stroke-linejoin="round" stroke-miterlimit="10"></path><path d="M246.006,317.7527c-1.498,0.987 -2.298,2.484 -3.901,3.382c-0.318,0.178 -1.289,0.523 -1.216,1.108c0.053,0.423 3.298,-0.902 3.792,-1.149" fill="none" stroke-opacity="0.5" stroke="#00adb5" stroke-linecap="round" stroke-linejoin="round" stroke-miterlimit="10"></path><path d="M251.593,319.1347c0.814,0.606 1.517,1.473 2.535,1.165c0.275,-0.083 0.851,-0.116 1.036,-0.301" fill="none" stroke-opacity="0.5" stroke="#00adb5" stroke-linecap="round" stroke-linejoin="round" stroke-miterlimit="10"></path><path d="M452.895,294.0237c-4.207,0.807 -7.265,2.022 -9.931,5.45c-1.69,2.172 -1.319,5.591 -0.212,7.894c1.824,3.795 6.309,5.938 10.355,6.124c4.713,0.216 11.265,-1.169 12.231,-6.79c0.518,-3.013 -2.361,-5.862 -3.709,-8.333c-1.096,-2.011 -2.748,-4.721 -5.056,-5.571c-0.942,-0.347 -3.129,-0.227 -3.815,0.711c-0.306,0.419 -0.7,0.862 -0.923,1.332c-0.181,0.382 0.013,-0.97 -0.03,-1.362" fill="none" stroke-opacity="0.5" stroke="#00adb5" stroke-linecap="round" stroke-linejoin="round" stroke-miterlimit="10"></path><path d="M454.666,304.3777c-1.135,0.584 -2.977,0.97 -1.983,2.248c0.226,0.292 0.549,0.276 0.825,0c0.235,-0.235 1.422,-1.471 0.545,-1.763c-1.788,-0.596 -1.134,2.971 0.143,1.393c0.687,-0.848 -0.274,-1.683 -1.135,-1.166c-1.026,0.615 -0.214,1.69 0.591,0.757c0.606,-0.704 0.122,-1.243 -0.538,-0.583c-0.591,0.591 0.009,1.533 0.59,0.734c0.596,-0.819 -0.083,-1.513 -0.802,-0.795c-0.832,0.832 0.069,0.745 0.659,0.197c0.594,-0.552 -0.46,-0.471 -0.803,-0.038c-0.795,1.006 0.451,0.863 0.651,0c0.295,-1.267 -1.012,1.645 -0.378,-0.575" fill="none" stroke-opacity="0.5" stroke="#00adb5" stroke-linecap="round" stroke-linejoin="round" stroke-miterlimit="10"></path><path d="M450.034,300.1547c1.21,1.597 2.45,3.111 3.466,4.708c0.282,0.442 0.057,0.886 0.212,0.878c0.573,-0.032 1.161,-0.136 1.771,-0.136c1.398,0 2.498,-0.682 3.845,-0.682c1.631,0 4.028,-0.423 1.332,-1.771" fill="none" stroke-opacity="0.5" stroke="#00adb5" stroke-linecap="round" stroke-linejoin="round" stroke-miterlimit="10"></path><path d="M448.671,293.8877c-0.255,-1.288 -1.498,-4.411 0.817,-4.08c0.831,0.119 1.389,0.978 1.878,1.521c1.271,1.413 1.135,3.119 -0.924,3.24c-0.539,0.032 -1.299,1.101 -1.907,0.341c-0.689,-0.862 0.014,-0.804 0.136,-1.84c0.08,-0.677 -0.363,-0.621 -0.553,-1.287c-0.145,-0.51 0.157,-1.069 0.28,-1.438" fill="none" stroke-opacity="0.5" stroke="#00adb5" stroke-linecap="round" stroke-linejoin="round" stroke-miterlimit="10"></path><path d="M449.489,292.3887c-0.013,0.325 -0.514,3.258 0.552,2.778c0.357,-0.161 0.666,-0.394 0.81,-0.765c0.14,-0.358 -0.009,-0.573 -0.167,-0.923c-0.406,-0.903 -1.585,-2.307 -1.226,-0.273c0.227,1.284 1.66,0.984 1.771,-0.242c0.086,-0.936 -1.095,-2.19 -1.846,-1.12c-0.532,0.757 0.415,2.425 0.968,1.256c0.282,-0.593 -0.391,-2.102 -1.105,-1.362c-0.732,0.758 0.368,2.358 1.09,1.711c0.714,-0.64 0.229,-2.592 -0.545,-1.847c-0.707,0.681 0.354,2.037 0.893,0.999c0.602,-1.158 -0.723,-2.031 -1.135,-0.818c-0.368,1.084 0.779,2.248 1.045,0.772c0.202,-1.123 -1.862,-1.72 -1.862,-0.378c0,1.237 1.105,1.11 1.105,-0.015c0,-1.173 -1.181,-0.909 -0.689,0.076c0.492,0.984 1.152,-0.763 0.598,-1.317c-0.647,-0.647 -1.504,0.353 -0.742,0.976c0.519,0.425 1.229,-1.338 0.356,-1.665c-0.754,-0.283 -0.337,1.257 -0.076,0.908c0.405,-0.54 -0.216,-0.902 0.212,-0.795c0.377,0.095 1.293,0.296 1.552,0.629c0.203,0.261 1.029,1.718 1.029,2.096c0,1.157 -1.77,1.781 -2.785,1.491c-0.729,-0.208 -0.945,0.307 -0.689,0.137c0.62,-0.414 0.749,-1.492 0.749,-1.083" fill="none" stroke-opacity="0.5" stroke="#00adb5" stroke-linecap="round" stroke-linejoin="round" stroke-miterlimit="10"></path><path d="M449.352,313.3697c-0.701,1.489 -1.324,2.984 -2.149,4.391c-0.186,0.316 -0.535,0.963 -0.576,1.332c-0.11,0.994 0.888,-2.371 1.09,-2.861" fill="none" stroke-opacity="0.5" stroke="#00adb5" stroke-linecap="round" stroke-linejoin="round" stroke-miterlimit="10"></path><path d="M463.113,310.5087c1.725,2.179 3.628,3.733 4.973,6.124c0.132,0.235 0.362,0.422 0.545,0.605c0.612,0.612 -1.136,-1.306 -1.703,-1.96" fill="none" stroke-opacity="0.5" stroke="#00adb5" stroke-linecap="round" stroke-linejoin="round" stroke-miterlimit="10"></path><path d="M348.828,183.4777c1.079,4.072 5.245,19.209 6.242,24.74c2.744,15.228 -1.562,-5.551 -1.572,1.175" fill="none" stroke-opacity="0.5" stroke="#00adb5" stroke-width="2" stroke-linecap="round" stroke-linejoin="round" stroke-miterlimit="10"></path><path d="M341.517,190.0607c-0.368,-6.196 -1.758,-14.796 6.93,-13.911c4.088,0.417 8.59,2.843 11.138,6.089c3.938,5.016 1.861,12.792 -2.394,16.784c-2.265,2.124 -4.462,3.189 -7.425,3.992c-5.021,1.361 -1.059,-5.612 -0.25,-7.524" fill="none" stroke-opacity="0.5" stroke="#00adb5" stroke-width="2" stroke-linecap="round" stroke-linejoin="round" stroke-miterlimit="10"></path><path d="M364.115,197.6337c8.633,-0.462 16.579,-2.161 19.668,7.201c1.794,5.441 3.98,12.052 2.484,17.786c-1.352,5.181 -4.264,8.42 -9.588,6.213c-7.608,-3.154 -7.598,-9.092 -3.457,-15.014c1.525,-2.18 7.364,-6.546 7.368,-9.095" fill="none" stroke-opacity="0.5" stroke="#00adb5" stroke-width="2" stroke-linecap="round" stroke-linejoin="round" stroke-miterlimit="10"></path><path d="M379.675,187.5307c-0.294,2.271 -0.299,18.34 -4.648,18.494c-0.816,0.029 -1.5,0.453 -2.213,0.808c-2.738,1.363 -1.072,0.136 -0.05,-1.283c2.315,-3.214 7.005,-2.026 9.352,-6.292c2.55,-4.632 3.724,-6.91 0.069,-10.493c-2.561,-2.512 -1.436,-6.783 -3.453,-0.765" fill="none" stroke-opacity="0.5" stroke="#00adb5" stroke-width="2" stroke-linecap="round" stroke-linejoin="round" stroke-miterlimit="10"></path><path d="M392.416,172.9487c3.337,7.511 6.386,17.293 11.739,23.832c1.414,1.728 2.208,0.224 2.186,-1.122c-0.027,-1.7 -0.506,-3.416 -0.999,-5.026" fill="none" stroke-opacity="0.5" stroke="#00adb5" stroke-width="2" stroke-linecap="round" stroke-linejoin="round" stroke-miterlimit="10"></path><path d="M382.729,192.4817c5.294,-2.083 18.292,-4.191 20.507,-10.802" fill="none" stroke-opacity="0.5" stroke="#00adb5" stroke-width="2" stroke-linecap="round" stroke-linejoin="round" stroke-miterlimit="10"></path><path d="M399.01,173.1947c22.945,40.134 0.591,11.926 12.253,4.585c7.08,-4.455 7.67,16.544 9.632,7.461" fill="none" stroke-opacity="0.5" stroke="#00adb5" stroke-width="2" stroke-linecap="round" stroke-linejoin="round" stroke-miterlimit="10"></path><path d="M419.503,171.8137c0.832,2.489 3.628,18.92 9.449,15.167c2.603,-1.679 5.635,-4.879 6.136,-8.025c0.539,-3.375 -1.57,-11.95 -6.341,-11.027c-2.178,0.422 -5.82,0.523 -7.24,2.593c-1.373,2 -2.24,6.684 -0.592,1.765" fill="none" stroke-opacity="0.5" stroke="#00adb5" stroke-width="2" stroke-linecap="round" stroke-linejoin="round" stroke-miterlimit="10"></path><path d="M435.76,167.8357c6.507,-4.178 14.155,-5.549 15.145,4.289c0.124,1.235 0.147,2.79 0.714,3.927c0.656,1.318 -0.693,-3.222 -1.97,-3.955" fill="none" stroke-opacity="0.5" stroke="#00adb5" stroke-width="2" stroke-linecap="round" stroke-linejoin="round" stroke-miterlimit="10"></path><path d="M435.283,171.6027c0.294,5.143 -0.441,12.11 1.962,16.935c0.082,0.164 0.653,1.423 0.365,0.733c-0.569,-1.365 -0.805,-2.291 -1.878,-3.771" fill="none" stroke-opacity="0.5" stroke="#00adb5" stroke-width="2" stroke-linecap="round" stroke-linejoin="round" stroke-miterlimit="10"></path><path d="M270.596,218.1607c-0.901,8.359 0.67,34.095 -13.528,32.493c-2.96,-0.333 -5.648,-0.828 -7.054,-3.617c-1.473,-2.92 -2.691,-5.461 -2.837,-8.778c-0.18,-4.074 1.442,-5.997 4.736,-7.836c1.155,-0.644 -1.327,1.966 -1.547,2.219c-1.448,1.663 3.464,-0.364 5.342,-0.78" fill="none" stroke-opacity="0.5" stroke="#00adb5" stroke-width="2" stroke-linecap="round" stroke-linejoin="round" stroke-miterlimit="10"></path><path d="M288.823,222.1767c-7.181,0.672 -17.317,2.033 -18.476,11.017c-0.628,4.873 6.617,5.465 9.761,7.125c5.403,2.851 9.503,12.151 3.442,16.244c-4.214,2.846 -7.402,1.333 -11.501,1.617c-4.165,0.289 -1.265,-1.246 1.204,-1.667" fill="none" stroke-opacity="0.5" stroke="#00adb5" stroke-width="2" stroke-linecap="round" stroke-linejoin="round" stroke-miterlimit="10"></path><path d="M327.736,1c-0.576,5.7672 -0.926,11.5935 -1.637,17.347c-0.069,0.5536 -0.614,2.7389 0.031,0.9721c0.471,-1.2918 0.319,-2.638 1.075,-3.863c1.043,-1.6873 5.752,-8.1143 7.964,-7.4642c4.433,1.303 -0.041,9.5259 -1.31,11.8822c-0.438,0.8126 -1.631,2.5754 -1.013,3.4867c0.823,1.2149 2.346,-3.2749 2.411,-3.4123" fill="none" stroke-opacity="0.5" stroke="#00adb5" stroke-width="2" stroke-linecap="round" stroke-linejoin="round" stroke-miterlimit="10"></path><path d="M345.245,4.787c-0.526,2.5766 -4.939,15.2947 -0.687,17.4013c1.2,0.5945 3.855,-0.5277 4.68,-1.4951c0.859,-1.0074 0.41,-2.5499 0.317,-3.7191" fill="none" stroke-opacity="0.5" stroke="#00adb5" stroke-width="2" stroke-linecap="round" stroke-linejoin="round" stroke-miterlimit="10"></path><path d="M336.496,5.0649c4.665,1.3874 9.463,2.3111 14.099,3.7425c1.094,0.3379 1.504,0.4909 2.093,1.467c0.916,1.5183 -1.518,0.1314 -1.938,-0.3285" fill="none" stroke-opacity="0.5" stroke="#00adb5" stroke-width="2" stroke-linecap="round" stroke-linejoin="round" stroke-miterlimit="10"></path><path d="M357.594,14.0796c-1.071,3.2328 -2.077,6.5062 -3.3,9.6875c-0.242,0.6325 -0.279,0.8638 -0.41,0.3807c-0.126,-0.4654 -0.249,-0.7396 -0.042,-1.2311c1.098,-2.612 3.661,-6.3659 6.079,-7.8248c2.61,-1.5755 1.186,3.7164 0.835,4.7877c-0.394,1.2031 -1.455,4.5006 -0.248,1.3098c0.717,-1.8989 2.365,-6.6182 5.143,-5.9313c1.682,0.416 1.294,2.6905 0.997,3.8932c-0.549,2.2179 -1.094,4.4209 -1.644,6.6462c-0.804,3.2517 -0.37,1.4957 0.218,-0.8805" fill="none" stroke-opacity="0.5" stroke="#00adb5" stroke-width="2" stroke-linecap="round" stroke-linejoin="round" stroke-miterlimit="10"></path><path d="M378.332,7.0013c-1.676,6.028 -3.732,12.0388 -5.176,18.1295c-0.169,0.7143 -0.539,3.3592 0.599,3.6743c1.08,0.2993 5.349,-2.2655 4.306,-3.1547" fill="none" stroke-opacity="0.5" stroke="#00adb5" stroke-width="2" stroke-linecap="round" stroke-linejoin="round" stroke-miterlimit="10"></path><path d="M88.1903,252.8867c-3.9633,7.529 -7.9138,15.065 -11.8878,22.588c-1.1327,2.145 -3.3683,8.705 -3.6451,6.296c-0.3753,-3.267 1.6207,-7.84 2.4677,-10.901c1.1953,-4.321 3.6292,-12.952 9.6941,-12.921c4.578,0.025 9.7248,6.738 10.4347,10.927c0.5013,2.957 1.9589,-0.383 3.9373,-1.275" fill="none" stroke-opacity="0.5" stroke="#00adb5" stroke-width="2" stroke-linecap="round" stroke-linejoin="round" stroke-miterlimit="10"></path><path d="M100.4752,277.0077c2.6633,6.194 6.5894,16.665 14.6741,10.904c3.7149,-2.647 1.8688,-7.177 -1.7984,-8.616c-8.9873,-3.526 -20.3119,6.32 -22.5532,14.413c-2.2409,8.092 6.6052,10.573 12.6904,11.372c3.3672,0.442 2.612,-2.436 5.5093,-3.438" fill="none" stroke-opacity="0.5" stroke="#00adb5" stroke-width="2" stroke-linecap="round" stroke-linejoin="round" stroke-miterlimit="10"></path><path d="M122.8578,298.4237c-6.9815,-2.915 -16.2307,-5.514 -20.1651,3.408c-1.8964,4.3 6.5907,4.805 9.108,4.686c4.8079,-0.226 15.5143,-11.356 11.9068,-8.169c-3.1652,2.797 -6.3686,6.098 -7.6701,10.228c-0.8406,2.668 0.1248,8.561 3.2174,4.491" fill="none" stroke-opacity="0.5" stroke="#00adb5" stroke-width="2" stroke-linecap="round" stroke-linejoin="round" stroke-miterlimit="10"></path><path d="M150.007,304.0057c-10.133,0.972 -22.142,1.481 -25.7369,12.866c-1.7673,5.596 2.3789,9.488 7.3749,11.13c3.491,1.148 7.05,-1.344 9.168,-3.872" fill="none" stroke-opacity="0.5" stroke="#00adb5" stroke-width="2" stroke-linecap="round" stroke-linejoin="round" stroke-miterlimit="10"></path><path d="M159.211,305.5497c-0.556,0.676 -25.517,27.881 -13.619,28.091c3.295,0.059 6.676,-1.858 8.944,-4.013" fill="none" stroke-opacity="0.5" stroke="#00adb5" stroke-width="2" stroke-linecap="round" stroke-linejoin="round" stroke-miterlimit="10"></path><path d="M138.068,310.4997c4.793,3.305 9.518,6.805 14.775,9.359c1.365,0.664 3.64,0.98 4.58,2.356c0.528,0.773 -0.302,-1.063 -0.394,-1.33" fill="none" stroke-opacity="0.5" stroke="#00adb5" stroke-width="2" stroke-linecap="round" stroke-linejoin="round" stroke-miterlimit="10"></path><path d="M84.6113,92.6817c4.0218,6.878 16.7938,26.944 11.6088,20.895c-3.3142,-3.867 -5.8317,-8.999 -7.9331,-13.574c-2.2051,-4.8 -4.2757,-13.365 4.1274,-12.931c7.2123,0.374 10.0915,7.739 11.3602,13.776c0.5597,2.663 0.7025,4.732 1.8971,7.154c1.2216,2.477 1.2893,-7.066 1.7536,-9.542" fill="none" stroke-opacity="0.5" stroke="#00adb5" stroke-width="2" stroke-linecap="round" stroke-linejoin="round" stroke-miterlimit="10"></path><path d="M110.5955,78.6937c0.2244,1.04 3.7009,24.825 8.7469,20.251c2.1245,-1.926 2.5915,-6.674 2.8642,-9.275c0.8526,-8.129 -2.5814,-9.133 -8.2882,-10.853c-2.7226,-0.821 -3.2805,-0.784 -4.0281,2.019c-1.5353,5.755 0.8847,4.138 3.9856,0.938" fill="none" stroke-opacity="0.5" stroke="#00adb5" stroke-width="2" stroke-linecap="round" stroke-linejoin="round" stroke-miterlimit="10"></path><path d="M132.536,71.9837c-2.803,4.725 -6.378,10.283 -4.406,16.07c0.818,2.401 2.721,1.766 4.054,0.415c2.103,-2.133 3.2,-5.638 3.083,-8.567c-0.224,-5.614 -3.741,-10.418 -7.432,-14.4074c-0.511,-0.5531 -5.1717,-4.3951 -4.2591,-1.0964c1.6393,5.9248 6.2021,11.6238 9.3811,16.7738c5.24,8.487 6.847,5.191 9.201,-2.776" fill="none" stroke-opacity="0.5" stroke="#00adb5" stroke-width="2" stroke-linecap="round" stroke-linejoin="round" stroke-miterlimit="10"></path><path d="M142.656,73.4527c1.74,1.623 15.47,11.43 15.896,2.731c0.038,-0.789 -0.968,-1.036 -1.299,-1.708c-0.855,-1.733 -2.271,-2.876 -3.041,-3.785" fill="none" stroke-opacity="0.5" stroke="#00adb5" stroke-width="2" stroke-linecap="round" stroke-linejoin="round" stroke-miterlimit="10"></path><path d="M143.801,79.3477c-5.436,-7.139 -13.03,-14.5615 -5.246,-21.619c3.28,-2.9738 10.086,-0.6223 9.908,4.3463c-0.083,2.3141 -0.571,8.0367 -3.895,8.6407c-1.757,0.319 -2.567,-0.831 -0.942,-2.439" fill="none" stroke-opacity="0.5" stroke="#00adb5" stroke-width="2" stroke-linecap="round" stroke-linejoin="round" stroke-miterlimit="10"></path><path d="M156.211,49.7396c3.515,2.2364 28.56,17.0371 15.442,23.5061c-2.045,1.009 -3.844,-1.341 -4.931,-2.853c-2.45,-3.408 4.688,-8.2433 4.985,-11.8534" fill="none" stroke-opacity="0.5" stroke="#00adb5" stroke-width="2" stroke-linecap="round" stroke-linejoin="round" stroke-miterlimit="10"></path><path d="M176.768,37.8409c-2.046,1.6707 -13.78,12.0477 -4.553,14.0541c5.097,1.1082 9.914,-3.9706 13.788,-6.5057c6.24,-4.0839 7.558,3.7746 5.843,8.2101c-1.05,2.7164 -9.817,11.6058 -7.418,4.5388" fill="none" stroke-opacity="0.5" stroke="#00adb5" stroke-width="2" stroke-linecap="round" stroke-linejoin="round" stroke-miterlimit="10"></path><path d="M246.024,424.0767c-7.806,3.928 -18.035,11.092 -9.596,20.597c4.048,4.56 11.521,2.692 16.852,2.165c1.498,-0.148 5.631,1.293 4.506,0.293c-2.434,-2.163 -4.185,-2.024 -4.915,-5.676" fill="none" stroke-opacity="0.5" stroke="#00adb5" stroke-width="2" stroke-linecap="round" stroke-linejoin="round" stroke-miterlimit="10"></path><path d="M269.197,421.4427c0,5.755 -0.054,9.875 5.851,12.113c2.55,0.967 4.151,1.854 4.828,4.711c0.765,3.229 -1.488,7.907 -4.155,9.713c-3.297,2.233 -7.438,3.012 -11.147,1.492c-3.177,-1.302 0.335,-2.841 1.989,-4.33" fill="none" stroke-opacity="0.5" stroke="#00adb5" stroke-width="2" stroke-linecap="round" stroke-linejoin="round" stroke-miterlimit="10"></path><path d="M295.002,415.1237c-1.036,4.013 -5.705,14.746 -1.551,18.9c1.677,1.677 4.924,0.746 6.992,1.229c2.058,0.481 3.823,2.056 5.091,3.687c2.008,2.581 0.097,6.493 -2.223,8.309c-3.6,2.817 -8.742,1.58 -12.932,1.58c-2.288,0 -0.725,-0.162 0.409,-1.58" fill="none" stroke-opacity="0.5" stroke="#00adb5" stroke-width="2" stroke-linecap="round" stroke-linejoin="round" stroke-miterlimit="10"></path><path d="M285.923,365.1787c4.057,-1.548 11.582,-4.012 15.506,-6.788c4.143,-2.93 -0.194,-3.772 -2.399,-3.072c-3.734,1.187 -5.99,5.098 -7.256,8.544c-3.332,9.071 7.268,19.325 16.18,18.286c8.235,-0.961 9.384,-4.993 10.62,-11.177" fill="none" stroke-opacity="0.5" stroke="#00adb5" stroke-width="2" stroke-linecap="round" stroke-linejoin="round" stroke-miterlimit="10"></path><path d="M323.841,360.4387c-0.923,1.503 -9.688,19.549 -12.113,11.06" fill="none" stroke-opacity="0.5" stroke="#00adb5" stroke-width="2" stroke-linecap="round" stroke-linejoin="round" stroke-miterlimit="10"></path><path d="M307.515,360.9657c3.698,4.943 12.632,22.617 21.592,22.119c1.3,-0.072 -0.424,-5.075 -0.526,-5.793" fill="none" stroke-opacity="0.5" stroke="#00adb5" stroke-width="2" stroke-linecap="round" stroke-linejoin="round" stroke-miterlimit="10"></path><path d="M331.74,360.9657c2.043,11.967 6.135,48.135 3.804,36.221c-1.202,-6.143 -12.178,-39.386 -2.516,-38.006c4.19,0.599 14.886,6.712 12.083,12.318c-1.576,3.152 -11.343,4.252 -7.051,2.106" fill="none" stroke-opacity="0.5" stroke="#00adb5" stroke-width="2" stroke-linecap="round" stroke-linejoin="round" stroke-miterlimit="10"></path><path d="M351.753,369.3917c1.301,6.771 2.553,13.537 3.686,20.334c0.194,1.164 -0.066,0.205 -0.409,-0.438c-2.154,-4.04 -5.104,-11.238 -5.003,-15.77c0.095,-4.294 6.002,-7.222 9.099,-4.126" fill="none" stroke-opacity="0.5" stroke="#00adb5" stroke-width="2" stroke-linecap="round" stroke-linejoin="round" stroke-miterlimit="10"></path><path d="M368.606,377.2917c-0.137,4.956 3.458,22.307 11.995,17.262c1.223,-0.723 4.241,-2.489 4.33,-4.096c0.048,-0.857 -1.511,-1.053 -2.106,-1.053c-1.565,0 -1.956,-1.941 -2.633,-3.16" fill="none" stroke-opacity="0.5" stroke="#00adb5" stroke-width="2" stroke-linecap="round" stroke-linejoin="round" stroke-miterlimit="10"></path><path d="M365.972,378.8717c4.613,-4.772 9.801,-11.346 13.898,-2.838c1.199,2.491 0.781,5.492 -0.205,7.987c-1.594,4.031 -7.301,5.621 -5.793,-0.409" fill="none" stroke-opacity="0.5" stroke="#00adb5" stroke-width="2" stroke-linecap="round" stroke-linejoin="round" stroke-miterlimit="10"></path><path d="M394.411,369.3917c3.609,5.768 18.207,21.316 8.631,28.41c-3.064,2.269 -5.064,2.259 -8.514,2.135c-4.871,-0.174 -2.297,-1.408 -0.644,-5.266" fill="none" stroke-opacity="0.5" stroke="#00adb5" stroke-width="2" stroke-linecap="round" stroke-linejoin="round" stroke-miterlimit="10"></path><path d="M416.529,367.2857c-1.09,1.319 -15.172,14.933 -6.612,16.384c3.155,0.535 6.055,-1.376 8.953,0.556c5.229,3.486 3.99,8.211 -0.819,11.176c-2.404,1.483 -5.086,2.26 -7.607,3.482c-1.425,0.691 0.093,-1.31 0.292,-2.106" fill="none" stroke-opacity="0.5" stroke="#00adb5" stroke-width="2" stroke-linecap="round" stroke-linejoin="round" stroke-miterlimit="10"></path><path d="M404.417,361.4927c-1.223,0.898 -14.39,8.205 -12.522,12.639c2.355,5.594 3.134,-1.292 3.569,-3.686" fill="none" stroke-opacity="0.5" stroke="#00adb5" stroke-width="2" stroke-linecap="round" stroke-linejoin="round" stroke-miterlimit="10"></path><path d="M80.7341,189.2197c2.3455,-5.53 1.3848,-10.349 1.3848,-16.081c0,-1.115 -0.2023,-4.511 0.9695,-5.119c1.8478,-0.959 3.5747,-1.599 5.7549,-1.599c1.4495,0 2.9058,0.042 4.3547,0c1.449,-0.041 2.8527,-0.631 4.2854,-0.806c2.6657,-0.327 5.4384,0.128 8.0708,0.128c2.0901,0 4.2523,0.271 6.2627,0.271c0.3569,0 1.8121,0.17 2.0465,0.377c0.7176,0.633 0.5121,1.648 1.0771,2.202" fill="none" stroke-opacity="0.5" stroke="#00adb5" stroke-linecap="round" stroke-linejoin="round" stroke-miterlimit="10"></path><path d="M114.8027,169.0827c0.0912,1.632 0.1254,3.922 0.7969,5.517c0.4351,1.033 0.0882,2.409 0.1762,3.51c0.1691,2.112 -0.1455,4.172 -0.1455,6.222c0,2.749 0.1379,5.464 0.1379,8.199c0,2.347 -2.2935,1.954 -4.1072,1.624c-1.5669,-0.285 -3.6696,0.287 -5.3027,0.307c-3.1505,0.039 -6.3157,0.276 -9.4711,0.276c-2.6353,0 -4.5923,-0.766 -7.0191,-1.686c-1.2959,-0.492 -2.0792,-0.383 -3.4712,-0.383c-1.3184,0 -2.4025,-0.206 -3.7241,0.207c-0.7732,0.241 -2.1579,0.033 -2.5977,-0.759c-0.5273,-0.949 0.5211,-1.361 0.5211,-2.138c0,-0.652 -0.082,-2.518 0.1379,-0.758" fill="none" stroke-opacity="0.5" stroke="#00adb5" stroke-linecap="round" stroke-linejoin="round" stroke-miterlimit="10"></path><path d="M96.4581,172.6687c0,0 0.5518,0.276 1.1035,0.828c0.5517,0.413 1.7131,0.207 2.6896,0.207c0.5138,0 1.0565,-0.401 1.5172,-0.606c0.9334,-0.415 0.3767,0.366 0.1533,0.812c-0.2473,0.495 0.0351,1.415 0.4827,1.725c0.7386,0.511 1.4693,0.07 2.1916,-0.292c0.2998,-0.15 0.2175,-0.219 0.3103,-0.015c0.1259,0.277 0.1035,0.679 0.1035,0.981c0,0.687 -0.0452,1.83 -0.4138,2.429c-0.485,0.788 -0.975,1.298 -1.7548,1.877c-0.7704,0.573 -1.7882,1.571 -2.8122,1.571c-2.0011,0 -4.1251,-0.436 -5.1264,-2.383c-0.4244,-0.825 -1.203,-1.501 -1.203,-2.444c0,-0.788 -0.2605,-1.731 0,-2.483c0.3157,-0.912 1.1034,-1.778 0.8275,-1.778c0.1407,0.04 1.3793,-0.705 1.931,-0.429z" fill="none" stroke-opacity="0.5" stroke="#00adb5" stroke-linecap="round" stroke-linejoin="round" stroke-miterlimit="10"></path><path d="M98.734,172.1857c0.776,-0.287 2.5483,-0.889 2.9655,-1.827c0.3224,-0.726 -0.7432,-0.862 -1.3103,-0.862c-0.6878,0 -1.5029,0.95 -1.6858,1.551c-0.1018,0.335 -0.1985,0.677 -0.2989,1.016c-0.0484,0.163 0.0162,0.281 0.0498,0.433c0.0256,0.115 1.0779,-0.438 1.0383,-0.596" fill="none" stroke-opacity="0.5" stroke="#00adb5" stroke-linecap="round" stroke-linejoin="round" stroke-miterlimit="10"></path><path d="M112.6709,187.6997l-30.5383,0.671c-3.2304,0.071 -5.8122,2.71 -5.8122,5.941c0,3.282 2.6606,5.943 5.9428,5.943h30.5394c3.3137,0 6,-2.686 6,-6v-0.556c0,-3.366 -2.7673,-6.073 -6.1317,-5.999z" fill="none" stroke-opacity="0.5" stroke="#00adb5" stroke-miterlimit="10"></path><path d="M88.8218,188.2037c0.4581,0.71 0.8536,1.563 1.3792,2.22c0.2644,0.33 0.222,0.263 0.7345,0.073c0.8556,-0.317 1.825,-0.089 2.7176,-0.089c0.7836,0 1.6948,-0.41 2.4564,-0.204c0.8824,0.237 1.9226,-0.216 2.791,-0.237c1.0465,-0.025 2.0441,0.073 3.0849,0.073c0.6274,0 1.2391,-0.367 1.8198,-0.367c0.337,0 1.2974,0.267 1.3221,-0.351c0.012,-0.301 0.1469,-0.593 0.1469,-0.898c0,-0.411 -0.2463,-0.233 -0.661,-0.44" fill="none" stroke-opacity="0.5" stroke="#00adb5" stroke-linecap="round" stroke-linejoin="round" stroke-miterlimit="10"></path><path d="M238.243,37.4329c0.566,-0.72 1.651,-2.0524 0.131,-2.288c-0.344,-0.0533 -0.666,-0.2554 -1.003,-0.1024c-1.04,0.4711 -2.006,1.5084 -2.006,2.7417c0,1.9699 2.161,2.3964 3.73,2.3709c2.648,-0.043 3.454,-2.6228 4.389,-4.7126c0.945,-2.1109 1.994,-4.1877 2.974,-6.2835c1.109,-2.3715 2.928,-4.2606 4.079,-6.6104c0.493,-1.0076 1.137,-1.8949 1.773,-2.8149c0.985,-1.4271 1.688,-2.8668 2.393,-4.4492c0.578,-1.2982 1.219,-2.4837 1.927,-3.7125c0.287,-0.4969 0.179,-1.2582 0.727,-0.7269c0.416,0.4033 1.078,0.6683 1.637,0.7708c2.447,0.4481 4.698,0.9224 7.218,0.722c2.549,-0.2027 5.096,-0.5678 7.605,-1.0538c0.853,-0.1652 0.489,0.0337 0.087,0.5513c-0.682,0.8779 -1.265,1.8083 -1.918,2.6978c-0.852,1.1601 -1.152,2.5571 -1.657,3.8833c-0.554,1.4579 -1.214,2.8504 -1.744,4.3321c-1.023,2.8637 -2.516,5.4753 -4.364,7.8788c-1.071,1.3929 -2.393,3.8257 -4.398,3.7272c-3.103,-0.1524 -1.008,-6.2601 0.474,-7.4544c0.798,-0.6429 1.671,0.0493 1.768,0.9123c0.134,1.1859 -0.273,2.8109 -1.424,3.3906c-1.214,0.6116 -2.145,0.5382 -1.211,-1.0391c0.566,-0.9544 0.902,0.0959 1.134,-0.3708" fill="none" stroke-opacity="0.5" stroke="#00adb5" stroke-width="2" stroke-linecap="round" stroke-linejoin="round" stroke-miterlimit="10"></path><path d="M472.071,250.1957c0.566,-0.721 1.651,-2.053 0.131,-2.288c-0.344,-0.054 -0.666,-0.256 -1.003,-0.103c-1.04,0.471 -2.005,1.509 -2.005,2.742c0,1.97 2.16,2.396 3.729,2.371c2.648,-0.043 3.454,-2.623 4.389,-4.713c0.945,-2.111 1.994,-4.188 2.974,-6.283c1.109,-2.372 2.928,-4.261 4.079,-6.611c0.493,-1.007 1.138,-1.895 1.773,-2.815c0.985,-1.427 1.688,-2.867 2.393,-4.449c0.578,-1.298 1.219,-2.484 1.928,-3.712c0.286,-0.497 0.178,-1.259 0.726,-0.727c0.416,0.403 1.078,0.668 1.637,0.77c2.448,0.449 4.698,0.923 7.218,0.722c2.549,-0.202 5.096,-0.567 7.605,-1.053c0.853,-0.165 0.489,0.033 0.087,0.551c-0.682,0.878 -1.264,1.808 -1.918,2.698c-0.852,1.16 -1.152,2.557 -1.657,3.883c-0.554,1.458 -1.214,2.85 -1.743,4.332c-1.024,2.864 -2.517,5.476 -4.365,7.879c-1.071,1.393 -2.393,3.826 -4.398,3.727c-3.103,-0.152 -1.008,-6.26 0.475,-7.454c0.797,-0.643 1.67,0.049 1.768,0.912c0.133,1.186 -0.273,2.811 -1.425,3.391c-1.214,0.611 -2.145,0.538 -1.211,-1.039c0.566,-0.955 0.902,0.096 1.134,-0.371" fill="none" stroke-opacity="0.5" stroke="#00adb5" stroke-width="2" stroke-linecap="round" stroke-linejoin="round" stroke-miterlimit="10"></path><path d="M447.069,126.0907c-2.596,-4.705 -2.443,-6.049 -1.851,-10.785c0.326,-2.607 0.451,-5.156 1.11,-7.721c1.18,-4.588 1.563,-10.767 -2.131,-14.461c-7.269,-7.269 -20.806,3.069 -16.707,12.291c1.56,3.51 4.256,6.109 6.203,9.419c0.781,1.328 1.218,2.767 2.234,4.008c0.973,1.19 2.182,2.671 2.182,4.148c0,1.248 -0.372,2.866 0.511,3.969c1.219,1.524 0.785,0.74 2.59,0.74c1.241,0 3.071,-0.986 4.072,-1.786c0.714,-0.572 1.098,1.081 1.098,-0.511c0,-1.367 -0.44,-0.23 0.459,-0.23" fill="none" stroke-opacity="0.5" stroke="#00adb5" stroke-linecap="round" stroke-linejoin="round" stroke-miterlimit="10"></path><path d="M441.325,130.4557c2.457,-0.732 9.257,-2.368 7.683,-0.344c-1.899,2.441 -2.711,1.218 -5.041,1.736c-1.192,0.264 -2.353,3.942 -1.034,4.02c1.885,0.111 3.135,-2.425 5.054,-2.425c1.748,0 1.622,2.299 0.575,3.114c-1.384,1.076 -2.975,-0.08 -3.906,1.596c-1.471,2.648 2.548,2.217 3.689,1.595c1.149,-0.627 2.242,-1.606 3.088,-2.17" fill="none" stroke-opacity="0.5" stroke="#00adb5" stroke-linecap="round" stroke-linejoin="round" stroke-miterlimit="10"></path><path d="M447.069,125.3447c-0.031,0.2 -0.064,1.55 -0.603,1.55c-0.291,0 -0.424,-0.176 -0.689,-0.028c-0.312,0.173 -0.605,0.581 -0.903,0.82c-0.263,0.21 -1.044,0.184 -1.194,0.446c-0.245,0.429 -0.742,0.664 -1.206,0.715c-0.602,0.067 -0.824,0.369 -1.465,0.227c-0.195,-0.044 -0.215,-0.169 -0.398,-0.169c-0.283,0 -0.406,0.135 -0.619,-0.102c-0.237,-0.263 -0.623,-0.386 -0.737,-0.785c-0.155,-0.543 -0.724,-0.828 0.118,-0.492" fill="none" stroke-opacity="0.5" stroke="#00adb5" stroke-linecap="round" stroke-linejoin="round" stroke-miterlimit="10"></path><path d="M435.984,102.6007c1.028,0.005 1.877,0.072 2.227,1.161c0.238,0.742 0.243,1.47 0.243,2.24c0,0.749 -0.46,1.351 -0.46,2.055c0,0.931 0.745,0.779 1.375,1.063c0.596,0.268 1.027,0.491 1.35,1.091c0.32,0.593 0.078,1.741 0.035,2.387c-0.037,0.555 -0.301,1.735 0.083,2.204c0.209,0.255 1.349,0.649 0.603,0.09" fill="none" stroke-opacity="0.5" stroke="#00adb5" stroke-linecap="round" stroke-linejoin="round" stroke-miterlimit="10"></path><path d="M427.311,112.9957c-0.823,0.547 -1.661,1.005 -2.581,1.35c-0.386,0.145 -0.894,0.403 -0.807,-0.201" fill="none" stroke-opacity="0.5" stroke="#00adb5" stroke-linecap="round" stroke-linejoin="round" stroke-miterlimit="10"></path><path d="M424.325,105.0697c-1.458,0.352 -2.907,0.747 -4.352,1.136c-0.241,0.065 0.311,-0.543 0.332,-0.561" fill="none" stroke-opacity="0.5" stroke="#00adb5" stroke-linecap="round" stroke-linejoin="round" stroke-miterlimit="10"></path><path d="M423.923,97.5467c-1.51,-0.22 -3.016,-0.492 -4.518,-0.76c-0.692,-0.123 -0.985,-0.032 -0.594,-0.619" fill="none" stroke-opacity="0.5" stroke="#00adb5" stroke-linecap="round" stroke-linejoin="round" stroke-miterlimit="10"></path><path d="M432.078,89.5627c-1.193,-0.209 -2.227,-0.411 -3.305,-0.951c-0.505,-0.252 -0.991,-0.555 -1.519,-0.759c-0.628,-0.242 -0.641,-0.168 0.057,-0.587" fill="none" stroke-opacity="0.5" stroke="#00adb5" stroke-linecap="round" stroke-linejoin="round" stroke-miterlimit="10"></path><path d="M442.474,84.3937c0.174,1.219 0.117,1.949 -0.376,3.054c-0.266,0.595 -0.491,1.348 -0.622,1.991c-0.046,0.221 -0.071,0.347 -0.221,0.514c-0.056,0.062 0.15,-0.678 0.185,-0.792" fill="none" stroke-opacity="0.5" stroke="#00adb5" stroke-linecap="round" stroke-linejoin="round" stroke-miterlimit="10"></path><path d="M451.261,89.2757c-0.381,1.269 -0.924,2.487 -1.25,3.759c-0.165,0.643 -0.062,0.682 0.217,0.032" fill="none" stroke-opacity="0.5" stroke="#00adb5" stroke-linecap="round" stroke-linejoin="round" stroke-miterlimit="10"></path><path d="M454.937,98.4077c-1.305,1.129 -2.375,2.531 -3.388,3.918c-0.127,0.174 -0.274,0.236 -0.415,0.377c-0.32,0.32 0.232,-0.403 0.3,-0.504" fill="none" stroke-opacity="0.5" stroke="#00adb5" stroke-linecap="round" stroke-linejoin="round" stroke-miterlimit="10"></path><path d="M162.497,213.6157c1.91,8.602 4.06,17.223 5.323,25.955c0.706,4.878 -0.844,-2.161 -1.036,-3.156c-0.417,-2.154 -0.895,-4.062 -0.895,-6.265c0,-4.433 -0.119,-8.916 -0.448,-13.354c-0.23,-3.107 -4.046,-12.358 0.777,-4.64c4.919,7.869 8.391,16.57 11.73,25.154c0.46,1.183 1.097,2.304 1.601,3.439c0.276,0.62 -4.887,-4.426 -6.877,-5.511" fill="none" stroke-opacity="0.5" stroke="#00adb5" stroke-width="2" stroke-linecap="round" stroke-linejoin="round" stroke-miterlimit="10"></path><path d="M159.529,232.6937c5.512,-2.2 17.665,-6.348 21.198,-12.53c1.48,-2.59 1.192,-1.393 -2.968,-0.613" fill="none" stroke-opacity="0.5" stroke="#00adb5" stroke-width="2" stroke-linecap="round" stroke-linejoin="round" stroke-miterlimit="10"></path><path d="M176.064,203.8647c4.253,8.42 7.334,17.386 8.502,26.733c0.108,0.866 0.309,1.816 0.919,2.426c0.113,0.113 -2.04,-3.918 -2.638,-4.994" fill="none" stroke-opacity="0.5" stroke="#00adb5" stroke-width="2" stroke-linecap="round" stroke-linejoin="round" stroke-miterlimit="10"></path><path d="M176.064,203.4407c3.298,1.976 15.412,9.273 7.513,13.92c-0.693,0.408 -1.506,0.784 -2.002,1.437c-1.05,1.381 -1.176,1.786 -0.424,-0.095" fill="none" stroke-opacity="0.5" stroke="#00adb5" stroke-width="2" stroke-linecap="round" stroke-linejoin="round" stroke-miterlimit="10"></path><path d="M187.086,199.2017c1.405,9.518 3.816,19.977 3.816,29.676c0,2.141 -0.358,-1.824 -0.848,-2.967" fill="none" stroke-opacity="0.5" stroke="#00adb5" stroke-width="2" stroke-linecap="round" stroke-linejoin="round" stroke-miterlimit="10"></path><path d="M196.837,216.1597c2.328,6.938 3.524,11.027 -3.297,13.048c-2.331,0.691 0.485,-2.695 1.083,-3.109c2.041,-1.413 4.073,-5.961 1.79,-8.244c-0.908,-0.908 -3.082,0.239 -3.721,-0.847c-0.943,-1.602 1.169,-4.636 2.449,-5.418c3.681,-2.249 3.218,0.921 1.696,-0.094" fill="none" stroke-opacity="0.5" stroke="#00adb5" stroke-width="2" stroke-linecap="round" stroke-linejoin="round" stroke-miterlimit="10"></path><path d="M324.188,87.4117c1.406,7.394 7.191,28.985 3.825,22.253c-0.362,-0.725 -0.665,-1.34 -0.695,-2.163c-0.113,-3.045 -0.34,-6.228 -1.391,-9.118c-0.879,-2.417 -0.695,-4.923 -0.695,-7.495c0,-0.515 -0.876,-4.57 -0.792,-4.597c0.885,-0.295 4.536,4.141 5.196,4.906c3.338,3.868 6.713,8.313 9.098,12.846c1.228,2.333 1.598,3.169 -1.333,3.535" fill="none" stroke-opacity="0.5" stroke="#00adb5" stroke-width="2" stroke-linecap="round" stroke-linejoin="round" stroke-miterlimit="10"></path><path d="M323.841,102.3627c3.263,-1.655 6.371,-2.978 9.736,-4.172" fill="none" stroke-opacity="0.5" stroke="#00adb5" stroke-width="2" stroke-linecap="round" stroke-linejoin="round" stroke-miterlimit="10"></path><path d="M333.229,87.7597c3.341,5.004 6.523,10.33 10.412,14.951c0.555,0.659 1.719,1.856 1.719,0.309c0,-2.111 -1.169,-4.293 -1.7,-6.297c-0.848,-3.206 -1.638,-6.427 -2.356,-9.659c-0.694,-3.12 -0.205,-1.955 0.966,0.387c1.94,3.879 3.982,7.413 6.683,10.856c1.82,2.319 2.009,1.028 2.009,-1.005c0,-3.691 -1.802,-6.727 -3.129,-10.045c-1.418,-3.544 -1.323,-8.382 -2.936,-11.609c-0.628,-1.255 -0.715,2.722 -0.889,4.114" fill="none" stroke-opacity="0.5" stroke="#00adb5" stroke-width="2" stroke-linecap="round" stroke-linejoin="round" stroke-miterlimit="10"></path><path d="M352.005,75.2417c0.089,0.409 1.384,10.532 3.671,9.388c1.002,-0.501 1.247,-2.034 2.279,-2.55c1.672,-0.835 3.479,0.645 4.134,2.087c1.733,3.812 -0.262,8.227 -3.4,10.547c-4.347,3.213 -2.859,-2.571 -2.859,-4.173" fill="none" stroke-opacity="0.5" stroke="#00adb5" stroke-width="2" stroke-linecap="round" stroke-linejoin="round" stroke-miterlimit="10"></path><path d="M354.092,74.5467c-0.626,1.71 -1.764,9.648 -2.106,6.568c-0.211,-1.902 0.164,-3.348 0.367,-5.177c0.482,-4.339 3.803,-0.849 2.434,-3.13" fill="none" stroke-opacity="0.5" stroke="#00adb5" stroke-width="2" stroke-linecap="round" stroke-linejoin="round" stroke-miterlimit="10"></path><path d="M330.903,302.9347c-0.116,-0.213 -5.132,-8.851 -4.698,-9.1c0.602,-0.344 1.725,-0.009 2.434,-0.275c2.093,-0.785 3.779,-2.405 5.502,-3.745c1.812,-1.41 4.294,9.648 4.846,11.977c0.667,2.818 2.405,6.564 -0.847,8.19c-2.931,1.466 -6.788,1.023 -9.988,0.952c-5.221,-0.116 -8.829,-8.686 -9.438,-12.951c-0.444,-3.105 -4.744,-13.073 -0.127,-15.067c1.236,-0.534 3.336,-0.169 4.677,-0.169c1.918,0 3.593,-1.143 5.544,-1.143c3.104,0 4.043,3.878 1.333,-0.381" fill="none" stroke-opacity="0.5" stroke="#00adb5" stroke-width="2" stroke-linecap="round" stroke-linejoin="round" stroke-miterlimit="10"></path><path d="M339.664,284.2697c0.541,1.972 2.282,12.919 6.856,10.116c0.871,-0.534 1.504,-1.828 1.82,-2.751c0.843,-2.466 1.02,-4.525 -0.868,-6.412c-1.414,-1.415 -4.145,-4.302 -6.2,-4.381c-5.096,-0.196 -0.6,5.512 -1.227,4.571" fill="none" stroke-opacity="0.5" stroke="#00adb5" stroke-width="2" stroke-linecap="round" stroke-linejoin="round" stroke-miterlimit="10"></path><path d="M340.426,266.7477c3.762,5.949 9.439,12.491 11.723,19.342c0.291,0.874 0.302,1.468 0.847,2.286c0.822,1.233 1.211,3.023 1.989,1.142c1.127,-2.723 3.695,-5.14 5.714,-7.237c2.49,-2.586 2.831,-1.82 -1.609,-1.82" fill="none" stroke-opacity="0.5" stroke="#00adb5" stroke-width="2" stroke-linecap="round" stroke-linejoin="round" stroke-miterlimit="10"></path><path d="M366.709,264.8437c-0.473,1.067 -7.649,15.268 -0.72,12.041c1.379,-0.642 2.785,-1.641 2.603,-3.28c-0.176,-1.58 -1.495,-2.822 -2.18,-4.19c-0.386,-0.774 -1.932,-4.499 -1.396,-3.429c1.591,3.182 3.727,8.849 6.094,11.216c2.758,2.758 4.41,-0.14 1.693,-1.693" fill="none" stroke-opacity="0.5" stroke="#00adb5" stroke-width="2" stroke-linecap="round" stroke-linejoin="round" stroke-miterlimit="10"></path><path d="M370.899,266.3667c10.602,16.818 -2.814,-2.052 0.275,-5.354c2.989,-3.195 6.52,2.941 7.639,4.889c1.949,3.393 3.868,12.196 0.847,3.132" fill="none" stroke-opacity="0.5" stroke="#00adb5" stroke-width="2" stroke-linecap="round" stroke-linejoin="round" stroke-miterlimit="10"></path><path d="M384.231,251.8927c-0.18,0.635 -5.867,16.639 -1.609,15.152c1.81,-0.632 3.627,-2.063 4.592,-3.704c1.114,-1.894 1.633,-4.491 0.826,-6.581c-0.551,-1.425 -1.146,-2.947 -1.905,-4.275c-1.803,-3.154 3.056,6.594 4.508,9.925c2.126,4.877 7.248,21.976 -4.825,18.58c-5.266,-1.481 -0.307,-9.671 -0.826,-9.671" fill="none" stroke-opacity="0.5" stroke="#00adb5" stroke-width="2" stroke-linecap="round" stroke-linejoin="round" stroke-miterlimit="10"></path><path d="M234.312,173.1917c1.893,-0.52 3.507,-1.044 4.838,-2.542c0.525,-0.59 0.596,-1.344 0.864,-2.059c0.349,-0.929 -0.085,-2.118 -0.383,-3.01c-0.237,-0.713 1.062,-1.113 1.526,-1.143c0.797,-0.051 1.407,0.456 2.173,0.501c0.921,0.054 1.903,0.349 2.542,1.068c0.433,0.487 1.014,0.602 1.493,1.025c0.455,0.401 0.814,1.101 1.143,1.615c0.952,1.487 1.221,3.222 1.498,4.923c0.132,0.816 0.213,1.703 0.075,2.527c-0.164,0.984 0.011,1.93 -0.378,2.873c-0.268,0.651 -0.697,1.514 -1.308,1.899c-0.627,0.395 -1.21,0.537 -1.37,1.356c-0.335,1.71 0.524,3.385 0.193,5.111c-0.293,1.533 -2.319,1.767 -3.571,2.013c-0.865,0.169 -2.436,0.434 -3.269,-0.019c-1.552,-0.844 -2.676,-1.898 -3.827,-3.241c-1.019,-1.19 -1.405,-2.929 -1.54,-4.45c-0.137,-1.553 -0.139,-3.239 -0.104,-4.809c0.023,-1.042 0.327,-2.089 0.425,-3.128c0.081,-0.85 0.351,-0.918 -0.085,0.17" fill="none" stroke-opacity="0.5" stroke="#00adb5" stroke-linecap="round" stroke-linejoin="round" stroke-miterlimit="10"></path><path d="M245.282,165.4537c0.639,-1.649 1.342,-3.297 1.833,-4.998c0.22,-0.764 0.273,-1.574 0.548,-2.32c0.319,-0.867 0.477,-1.847 0.614,-2.754c0.098,-0.65 0.146,-1.801 0.741,-2.211c0.435,-0.299 0.683,-0.982 1.148,-1.342c0.598,-0.461 1.448,-0.89 1.871,-1.507c0.416,-0.605 0.86,-1.855 0.51,-2.555c-0.194,-0.389 -0.167,-0.808 -0.359,-1.191c-0.249,-0.498 -0.473,-0.902 -0.661,-1.441c-0.165,-0.471 -0.684,-1.413 -0.08,-1.748c1.475,-0.819 1.578,0.471 2.036,1.649c0.236,0.609 0.272,1.352 0.491,1.984c0.15,0.433 0.416,0.12 0.619,0.369c0.306,0.374 0.321,0.842 0.553,1.247c0.346,0.606 -0.061,1.835 -0.237,2.428c-0.325,1.098 -0.66,2.092 -1.143,3.146c-1.243,2.716 -3.269,5.003 -4.658,7.635c-0.529,1.001 -0.952,2.01 -1.209,3.118c-0.147,0.629 -0.577,1.229 -0.577,1.894c0,0.607 -0.15,0.918 0.17,-0.043" fill="none" stroke-opacity="0.5" stroke="#00adb5" stroke-linecap="round" stroke-linejoin="round" stroke-miterlimit="10"></path><path d="M251.914,144.9607c-1.083,0.166 -2.264,0.229 -3.231,0.713c-0.133,0.066 0.073,-0.107 0.17,-0.118c1.296,-0.153 2.712,-1.309 3.893,-1.871c0.878,-0.418 2.079,-1.36 3.08,-1.36c0.29,0 -0.964,0.807 -1.106,0.935" fill="none" stroke-opacity="0.5" stroke="#00adb5" stroke-linecap="round" stroke-linejoin="round" stroke-miterlimit="10"></path><path d="M250.809,146.8307c1.205,-0.7 3.304,-1.46 4.185,-2.636c0.086,-0.114 0.149,-0.268 0.274,-0.34c0.438,-0.25 -0.336,0.029 -0.463,0.085" fill="none" stroke-opacity="0.5" stroke="#00adb5" stroke-linecap="round" stroke-linejoin="round" stroke-miterlimit="10"></path><path d="M251.659,147.9367c1.446,-0.554 4.09,-1.046 4.885,-2.636c0.115,-0.23 -0.14,-0.17 -0.293,-0.17" fill="none" stroke-opacity="0.5" stroke="#00adb5" stroke-linecap="round" stroke-linejoin="round" stroke-miterlimit="10"></path><path d="M253.19,147.7667c-0.093,1.95 -0.073,3.933 -1.186,5.603c-0.543,0.814 -0.919,1.356 -1.11,2.31c-0.204,1.019 -0.428,1.87 -0.893,2.801c-0.459,0.918 -0.998,1.67 -1.45,2.551c-0.235,0.457 -0.812,0.897 -0.7,1.446c0.057,0.277 -0.08,0.525 -0.17,0.784c-0.265,0.768 -0.762,1.444 -1.228,2.107c-0.316,0.45 -0.312,1.258 0.104,0.425" fill="none" stroke-opacity="0.5" stroke="#00adb5" stroke-linecap="round" stroke-linejoin="round" stroke-miterlimit="10"></path><path d="M246.302,163.4977c0.767,0.167 1.934,0.68 2.721,0.68c0.014,0 -0.669,-0.824 -0.765,-0.935" fill="none" stroke-opacity="0.5" stroke="#00adb5" stroke-linecap="round" stroke-linejoin="round" stroke-miterlimit="10"></path><path d="M246.812,160.0117c1.085,0.463 2.172,0.922 3.25,1.403c0.253,0.112 0.238,0.129 0.151,0.042c-0.186,-0.187 -0.345,-0.389 -0.51,-0.595" fill="none" stroke-opacity="0.5" stroke="#00adb5" stroke-linecap="round" stroke-linejoin="round" stroke-miterlimit="10"></path><path d="M247.833,157.7157c1.307,0.406 2.612,0.844 3.935,1.2c0.148,0.04 0.355,0.119 0.212,-0.029c-0.285,-0.295 -0.613,-0.555 -0.916,-0.831" fill="none" stroke-opacity="0.5" stroke="#00adb5" stroke-linecap="round" stroke-linejoin="round" stroke-miterlimit="10"></path><path d="M248.513,154.8247c1.488,0.727 2.97,1.511 4.497,2.159c0.251,0.106 0.335,0.184 0.284,-0.015c-0.07,-0.269 -0.174,-0.524 -0.274,-0.784" fill="none" stroke-opacity="0.5" stroke="#00adb5" stroke-linecap="round" stroke-linejoin="round" stroke-miterlimit="10"></path><path d="M250.383,152.7837c0.136,0.065 4.253,2.298 3.912,1.445" fill="none" stroke-opacity="0.5" stroke="#00adb5" stroke-linecap="round" stroke-linejoin="round" stroke-miterlimit="10"></path><path d="M251.234,151.4227c1.242,0.292 2.498,0.558 3.741,0.766" fill="none" stroke-opacity="0.5" stroke="#00adb5" stroke-linecap="round" stroke-linejoin="round" stroke-miterlimit="10"></path><path d="M252.595,150.0627c0.567,0.027 1.133,0.055 1.7,0.085" fill="none" stroke-opacity="0.5" stroke="#00adb5" stroke-linecap="round" stroke-linejoin="round" stroke-miterlimit="10"></path><path d="M241.37,175.5727c-0.591,0.235 -4.23,1.14 -4.252,2.145c-0.008,0.393 0,0.786 0.047,1.176c0.147,1.211 0.99,1.845 2.022,2.424c1.313,0.735 2.727,0.758 4.158,0.34c1.36,-0.398 2.244,-1.902 1.7,-3.194c-0.113,-0.268 0.278,-0.322 0.024,-0.633c-0.247,-0.302 -0.41,-0.127 -0.808,-0.047" fill="none" stroke-opacity="0.5" stroke="#00adb5" stroke-linecap="round" stroke-linejoin="round" stroke-miterlimit="10"></path><path d="M239.584,178.7187c0.677,-1.711 1.521,-3.422 1.914,-5.229c0.102,-0.474 0.229,-0.872 0.486,-1.299c0.542,-0.904 1.02,-1.869 1.342,-2.873c0.305,-0.953 0.325,-1.893 0.727,-2.825c0.144,-0.332 1.001,-1.329 0.633,-0.869" fill="none" stroke-opacity="0.5" stroke="#00adb5" stroke-linecap="round" stroke-linejoin="round" stroke-miterlimit="10"></path><path d="M246.302,166.4737c-0.316,1.97 -0.79,3.855 -1.124,5.802c-0.186,1.079 -0.492,1.981 -0.492,3.118c0,0.812 0.29,1.49 0.104,2.305c-0.214,0.938 -0.407,0.476 -0.784,-0.17" fill="none" stroke-opacity="0.5" stroke="#00adb5" stroke-linecap="round" stroke-linejoin="round" stroke-miterlimit="10"></path><path d="M245.452,166.4737c-0.592,1.23 -1.871,3.252 -1.871,4.805c0,0.883 0.057,1.82 -0.005,2.716c-0.073,1.066 -0.905,2.447 -1.403,3.364c-0.165,0.304 -0.38,0.539 -0.482,0.869c-0.127,0.412 -0.036,0.437 -0.321,-0.019" fill="none" stroke-opacity="0.5" stroke="#00adb5" stroke-linecap="round" stroke-linejoin="round" stroke-miterlimit="10"></path><path d="M239.329,176.9337c1.448,1.036 4.005,3.15 5.783,1.322c0.277,-0.285 0.677,-0.893 0.831,-1.256c0.21,-0.497 -0.47,-0.075 -0.917,0.019" fill="none" stroke-opacity="0.5" stroke="#00adb5" stroke-linecap="round" stroke-linejoin="round" stroke-miterlimit="10"></path><path d="M241.03,175.4027c0.826,-0.026 2.495,0.197 3.297,-0.217c0.027,-0.014 -0.061,0.009 -0.085,0.028c-0.079,0.063 -0.243,-0.04 -0.321,-0.066" fill="none" stroke-opacity="0.5" stroke="#00adb5" stroke-linecap="round" stroke-linejoin="round" stroke-miterlimit="10"></path><path d="M241.965,172.2567c0.606,0.16 2.799,1.094 2.891,0.085" fill="none" stroke-opacity="0.5" stroke="#00adb5" stroke-linecap="round" stroke-linejoin="round" stroke-miterlimit="10"></path><path d="M242.986,169.7057c0.751,0.49 3.8,2.761 3.316,0.34" fill="none" stroke-opacity="0.5" stroke="#00adb5" stroke-linecap="round" stroke-linejoin="round" stroke-miterlimit="10"></path><path d="M243.836,168.5147c0.765,0.199 1.53,0.397 2.296,0.595" fill="none" stroke-opacity="0.5" stroke="#00adb5" stroke-linecap="round" stroke-linejoin="round" stroke-miterlimit="10"></path><path d="M247.577,168.5147c0.947,0.892 2.836,2.966 2.892,4.526c0.045,1.272 0,2.502 0,3.789c0,0.936 0.178,1.935 0.085,2.825c-0.123,1.168 -1.917,1.183 -1.488,2.555c0.143,0.459 0.018,0.73 0.42,1.059c0.347,0.283 0.599,0.613 0.727,1.063c0.301,1.05 -0.297,1.998 -1.02,2.721c-0.452,0.452 -1.039,1.361 -1.573,1.658c-0.264,0.146 -0.803,0.042 -1.106,0.042c-0.28,0 -0.847,0.183 -1.1,0.298c-0.373,0.17 -0.849,-0.13 -1.323,0.043" fill="none" stroke-opacity="0.5" stroke="#00adb5" stroke-linecap="round" stroke-linejoin="round" stroke-miterlimit="10"></path><path d="M234.312,173.4467c0.343,1.139 0.598,2.086 1.172,3.061c0.235,0.401 0.203,0.765 0.099,1.233c-0.121,0.545 -0.519,1.822 -0.208,2.381c0.478,0.86 0.468,1.77 0.468,2.722c0,0.917 1.433,1.315 1.904,1.785c0.698,0.699 0.395,1.59 1.544,1.895c0.252,0.066 0.645,0.07 0.841,0.231c0.149,0.122 0.324,0.427 0.52,0.463c0.405,0.074 0.947,-0.007 1.313,0.156c0.306,0.136 0.529,0.332 0.808,0.487c0.307,0.17 0.728,-0.022 1.063,0.146c1.143,0.572 0.633,0.028 -0.17,-0.614" fill="none" stroke-opacity="0.5" stroke="#00adb5" stroke-linecap="round" stroke-linejoin="round" stroke-miterlimit="10"></path><path d="M149.689,130.7377c-2.272,2.908 -12.028,14.542 -3.715,17.175c2.58,0.817 5.937,-1.062 8.718,-0.79c3.932,0.383 6.143,3.726 7.11,7.197c1.114,3.997 -5.032,11.105 -2.077,13.254c5.06,3.68 12.348,-2.543 16.53,2.399c2.37,2.801 -0.122,6.871 1.346,0.263" fill="none" stroke-opacity="0.5" stroke="#00adb5" stroke-linecap="round" stroke-linejoin="round" stroke-miterlimit="10"></path><path d="M263.804,85.4467c2.19,2.902 7.402,9.439 9.363,13.166c1.668,3.173 -0.435,3.046 -2.224,1.785c-2.14,-1.507 -1.839,-4.713 -1.229,-6.934c2.062,-7.496 15.405,-14.388 16.911,-2.867c0.529,4.047 -3.088,10.851 -8.016,9.245c-6.507,-2.12 -6.092,-12.05 -1.171,-15.74c5.034,-3.776 13.283,0.562 13.283,6.729c0,6.846 -8.137,8.966 -11.293,2.926c-2.869,-5.49 2.214,-11.233 7.665,-12.055c2.005,-0.302 7.184,2.014 3.57,3.219" fill="none" stroke-opacity="0.5" stroke="#00adb5" stroke-linecap="round" stroke-linejoin="round" stroke-miterlimit="10"></path><path d="M373.871,137.5847c-3.41,3.388 -14.187,11.289 -5.12,14.365c5.276,1.79 10.16,-1.144 13.43,-5.149c3.607,-4.419 4.219,-11.408 -1.522,-14.278c-4.465,-2.232 -8.312,-5.818 -12.054,-0.205" fill="none" stroke-opacity="0.5" stroke="#00adb5" stroke-linecap="round" stroke-linejoin="round" stroke-miterlimit="10"></path><path d="M490.259,183.9287c-6.512,3.879 -16.4,8.564 -6.32,12.23c1.55,0.563 2.558,0.196 3.921,-0.761c5.039,-3.541 5.335,-4.959 5.032,-10.416c-0.2,-3.613 -5.484,-2.787 -7.899,-1.58c-3.563,1.781 -6.047,5.346 -7.49,8.953c-1.942,4.854 8.095,4.557 9.479,-1.287c0.868,-3.664 -3.323,-8.868 -6.202,-4.389c-3.816,5.935 2.006,11.242 5.676,5.033c3.514,-5.948 -4.698,-8.401 -6.905,-1.463c-2.903,9.122 14.351,-0.783 8.075,-3.921c-3.741,-1.87 -10.058,10.007 -3.16,7.051c8.375,-3.589 -0.995,-8.879 -0.995,-0.497c0,6.802 11.25,-3.07 3.921,-5.735c-1.676,-0.609 -3.33,4.746 -2.136,5.94c2.076,2.076 5.685,-3.301 5.5,-5.237c-0.791,-8.311 -8.927,12.818 0.761,3.13c2.213,-2.213 2.122,-6.213 -1.551,-3.862c-2.167,1.387 -3.538,7.275 0.556,5.91c3.933,-1.311 3.932,-8.594 -0.292,-6.905c-2.578,1.032 -3.512,4.681 -6.291,4.126" fill="none" stroke-opacity="0.5" stroke="#00adb5" stroke-linecap="round" stroke-linejoin="round" stroke-miterlimit="10"></path><path d="M433.382,238.1727c-1.087,1.2 -18.44,22.611 -9.714,11.703c1.996,-2.495 3.829,-4.949 6.554,-6.7c1.679,-1.08 3.297,-1.746 4.74,-3.189c1.576,-1.577 -0.659,-1.473 -1.024,1.814c-0.318,2.862 -0.075,15.359 -0.556,15.331c-3.253,-0.191 -5.386,-3.393 -8.397,-4.447c-1.613,-0.565 -6.396,0.248 -5.062,-0.82c3.262,-2.609 13.253,-10.092 10.299,-7.138c-2.238,2.237 -6.837,10.647 -5.266,7.899c1.116,-1.954 4.135,-8.32 3.686,-7.256c-0.926,2.193 -2.537,5.95 -2.399,8.368c0.131,2.295 4.69,-3.353 4.974,-3.921c2.113,-4.226 -2.259,5.278 -0.702,3.014c1.402,-2.04 6.142,-7.225 2.75,-2.136c-0.743,1.114 3.514,-4.024 2.75,-2.926c-0.222,0.319 -2.151,3.556 -1.024,2.429c4.038,-4.038 -1.912,0.16 -2.663,-0.966" fill="none" stroke-opacity="0.5" stroke="#00adb5" stroke-linecap="round" stroke-linejoin="round" stroke-miterlimit="10"></path><path d="M398.097,325.5947c1.843,-2.625 12.378,-14.207 3.716,-14.717c-1.464,-0.086 -4.483,-0.561 -5.706,0.439c-2.907,2.379 -1.646,8.795 2.283,9.509c5.21,0.947 10.092,-6.177 4.447,-8.924c-5.898,-2.869 -19.82,8.656 -13.81,13.4c11.833,9.342 22.533,-17.805 7.227,-13.897c-13.884,3.545 -1.653,17.845 4.652,8.631c6.75,-9.865 -14.064,-9.95 -10.387,1.083c1.814,5.441 7.767,2.815 8.836,-1.58c1.567,-6.444 -4.841,-3.783 -4.944,0.673c-0.112,4.775 7.246,-3.865 2.838,-3.482c-3.186,0.277 -3.501,4.652 -5.998,4.652" fill="none" stroke-opacity="0.5" stroke="#00adb5" stroke-linecap="round" stroke-linejoin="round" stroke-miterlimit="10"></path><path d="M188.495,276.0907c1.063,4.825 3.159,19.424 3.159,14.482c0,-3.411 -2.605,-6.594 -3.13,-10.006c-0.184,-1.192 0.195,-4.718 -0.819,-5.529c-0.694,-0.555 5.864,4.549 7.607,5.529c3.18,1.789 5.46,5.131 8.221,1.58c1.326,-1.704 5.226,-1.94 5.764,-2.37c3.899,-3.119 3.542,-7.775 4.447,-11.849c0.323,-1.453 -0.497,4.961 -0.497,6.846c0,2.412 0.435,5.606 1.082,7.871c0.919,3.216 0.551,-5.861 -0.322,-7.607c-1.418,-2.837 -1.287,-5.354 -1.287,-8.427c0,-1.213 8.804,13.995 7.256,15.156c-0.647,0.485 -9.268,-1.893 -11.879,-1.053c-2.249,0.723 -4.303,1.566 -6.436,2.633c-0.584,0.291 -1.546,1.353 -1.171,1.053c1.337,-1.07 5.428,-3.994 3.804,-3.452c-2.232,0.744 -4.423,2.903 -6.437,4.096c-3.796,2.249 -5.024,1.935 -6.612,5.793c-0.229,0.556 2.604,0.485 3.16,0.643c3.985,1.139 6.49,-1.965 10.006,-3.393c4.538,-1.844 9.755,-5.63 14.629,-6.203c3.678,-0.433 -1.915,-1.723 -2.107,-2.107" fill="none" stroke-opacity="0.5" stroke="#00adb5" stroke-linecap="round" stroke-linejoin="round" stroke-miterlimit="10"></path><path d="M389.671,73.3347c9.925,-3.182 26,-6.841 34.875,-14.1024c1.61,-1.3176 4.104,-2.5807 3.54,-5.1201c-2.12,-9.5401 -6.733,-11.7775 -15.828,-10.7669c-5.045,0.5606 -9.888,5.2141 -14.571,7.1097c-4.821,1.9515 -9.645,4.5155 -14.043,7.3144c-4.452,2.8328 -1.873,4.2361 -1.873,9.1283c0,2.69 1.607,6.437 4.476,6.437c1.308,0 5.057,-1.053 1.346,-1.053c-2.912,0 -7.433,0.441 -10.035,-0.937c-1.987,-1.052 1.935,-3.123 2.867,-3.247c3.329,-0.444 -3.814,2.812 -4.535,3.043c-1.482,0.474 5.349,-4.703 1.551,-3.482c-4.117,1.323 1.993,-2.2256 3.277,-2.8674c1.449,-0.7245 0.185,0.4225 0.526,-0.1756c0.547,-0.9569 3.712,-4.4726 0.849,-1.6092c-0.959,0.9587 2.164,-1.635 3.218,-2.4869c1.987,-1.6043 -0.534,0.8298 -1.024,1.2289c-2.259,1.8387 -2.788,0.355 -4.623,1.1703c-0.766,0.3408 -2.633,1.4711 -2.633,0.1463c0,-2.2858 8.065,-3.327 9.538,-3.3939c9.021,-0.4101 15.334,-4.3892 23.641,-6.466c3.997,-0.9994 8.366,-2.4387 12.112,-4.2131c2.779,-1.316 8.344,-5.4362 11.294,-4.5935c1.159,0.3312 -16.724,10.7365 -11.586,7.3437c4.25,-2.8065 9.123,-4.7773 2.75,0.4974c-5.106,4.2256 3.876,-0.6964 4.593,-0.4096c1.288,0.5151 -7.929,5.7796 -0.907,2.5454c2.686,-1.2369 4.916,-1.298 4.916,-4.2131c0,-3.957 1.082,-8.647 -3.95,-6.8171c-5.807,2.1117 -10.468,6.6252 -16.472,8.397c-4.139,1.2214 -8.172,2.7639 -12.23,4.2131c-4.709,1.6817 -13.232,3.5621 -16.589,7.6656c-1.789,2.1868 -4.976,10.7097 1.609,7.0217c6.041,-3.383 7.002,-10.2271 10.24,-15.6235c1.609,-2.6804 -2.802,5.6612 -3.452,8.7188c-0.747,3.5167 2.562,7.5637 6.349,6.9047c4.154,-0.722 8.523,-6.4587 10.006,-9.9475c7.127,-16.7686 -5.8,-0.5047 -2.136,3.1598c3.889,3.8887 9.815,-6.4132 10.591,-8.9528c0.935,-3.0601 1.485,-6.8321 2.604,-9.7429c1.452,-3.7751 -7.818,0.4767 -8.689,0.907c-4.822,2.3831 -8.189,5.562 -11.469,9.7721c-1.188,1.5239 -5.954,8.697 -2.692,10.328c4.372,2.1853 9.738,-4.6081 9.86,-8.1337c0.412,-11.943 -9.422,-5.8221 -15.36,-1.141c-3.67,2.8925 -0.482,8.6737 0.175,8.0166" fill="none" stroke-opacity="0.5" stroke="#00adb5" stroke-linecap="round" stroke-linejoin="round" stroke-miterlimit="10"></path><path d="M256.431,358.7727c-0.229,0.183 -8.894,7.657 -8.894,5.53c0,-1.246 0.959,-2.58 1.814,-3.394c1.69,-1.61 8.366,-2.848 6.758,1.083c-1.078,2.636 -5.486,6.522 -6.729,1.55c-0.516,-2.064 3.027,-6.207 5.179,-4.447c2.372,1.941 -2.728,4.414 -4.331,3.54c-2.861,-1.561 0.575,-7.118 3.336,-5.968c2.887,1.203 -1.084,4.491 -2.399,5.149c-3.076,1.538 -2.646,-0.948 -4.213,-2.516" fill="none" stroke-opacity="0.5" stroke="#00adb5" stroke-linecap="round" stroke-linejoin="round" stroke-miterlimit="10"></path><path d="M113.7119,358.2467c3.0358,5.002 8.8177,10.193 2.9258,14.746c-1.5198,1.174 -10.4847,5.869 -9.9477,0.409c0.654,-6.649 10.563,-6.797 11.1765,-12.756c0.6067,-5.894 -13.4686,-3.673 -16.6769,-7.666c-2.0099,-2.501 -3.6307,-8.044 -3.1599,-11.235c0.1834,-1.243 3.3351,-3.655 3.0136,-1.404c-0.5886,4.12 -13.8736,14.674 -5.9978,18.14c5.2803,2.323 6.6426,-3.56 10.5327,-4.974c8.0131,-2.914 -3.979,18.697 -3.979,13.166" fill="none" stroke-opacity="0.5" stroke="#00adb5" stroke-linecap="round" stroke-linejoin="round" stroke-miterlimit="10"></path><path d="M371.765,426.7097c-2.439,5.771 -7.373,23.557 -7.373,17.291c0,-0.977 0.189,-1.749 0.527,-2.662c1.585,-4.291 3.421,-8.284 6.085,-12.055c1.455,-2.058 3.188,-8.085 5.267,-3.511c0.97,2.134 3.745,8.076 2.574,10.416c-1.468,2.938 -6.028,4.623 -9.069,4.74c-0.793,0.03 -9.1,1.122 -6.408,-1.346c3.164,-2.9 6.225,-11.72 11.001,-12.317c0.737,-0.093 2.278,0.4 2.926,0.76c1.141,0.634 -0.249,1.779 -0.79,2.663c-0.649,1.06 -5.783,8.221 -5.793,7.899c-0.146,-4.799 4.778,-11.766 7.431,-15.389c0.952,-1.299 -4.111,7.519 -5.266,9.509c-0.894,1.539 0.272,4.811 -3.745,4.008" fill="none" stroke-opacity="0.5" stroke="#00adb5" stroke-linecap="round" stroke-linejoin="round" stroke-miterlimit="10"></path><path d="M208.507,3.2915c-2.35,9.1921 -4.443,17.9503 -5.296,27.3267c-0.085,0.9379 -0.678,1.5443 -0.088,2.2821c0.879,1.0981 3.202,-5.8839 4.097,-7.7533c2.833,-5.9254 6.027,-8.2637 6.027,-15.5359c0,-1.0493 0,-7.0888 0,-3.1013c0,3.3854 0.641,6.7313 0.409,10.1232c-0.175,2.5637 -2.636,9.4826 -0.819,7.6655c2.805,-2.8046 0.558,-16.8669 -3.833,-17.2328c-5.993,-0.4994 -8.882,12.49 -9.567,16.5306c-0.797,4.7012 2.518,6.6694 6.173,3.0136c4.99,-4.9898 6.072,-15.2485 1.785,-21.0948c-5.89,-8.032 -9.755,6.4604 -10.24,10.0061c-1.097,8.0206 3.383,10.5908 8.689,4.8861c1.952,-2.0982 5.887,-5.7263 5.062,-8.9822c-1.098,-4.3308 -7.499,-0.1253 -8.777,1.7555c-1.813,2.667 -1.789,9.3101 1.141,11.2057c2.735,1.7699 5.397,-5.5639 5.091,-7.4022c-1.3,-7.7963 -15.996,4.58 -8.69,9.0114c6.359,3.8568 10.574,-13.3979 2.75,-11.2642c-2.178,0.5941 -7.353,6.4659 -2.867,6.4659" fill="none" stroke-opacity="0.5" stroke="#00adb5" stroke-linecap="round" stroke-linejoin="round" stroke-miterlimit="10"></path><path d="M68.9474,153.3837c-2.3665,6.705 -4.0702,10.985 -10.0646,14.746c-1.5051,0.944 -3.4941,2.615 -3.8035,4.506c-0.6611,4.04 5.7115,8.492 9.3332,7.285c7.6312,-2.544 -3.9165,-10.097 -5.1494,-12.289c-2.1466,-3.816 5.6118,-10.671 9.1869,-8.66c2.7829,1.566 4.0166,7.021 2.3699,9.684c-2.3988,3.881 -7.5548,4.034 -11.586,3.424c-3.2105,-0.487 -9.6413,0.175 -7.7533,4.944c2.3624,5.968 13.5123,2.84 15.1847,-2.223c1.6283,-4.93 -7.1868,-6.788 -5.2956,-11.411c1.299,-3.175 5.4006,-7.139 9.0406,-7.139c4.3601,0 0.0059,8.145 -0.6437,9.421c-2.8683,5.638 -7.2569,6.2 -12.8148,7.724c-10.4607,2.868 0.8085,3.272 1.4628,0" fill="none" stroke-opacity="0.5" stroke="#00adb5" stroke-linecap="round" stroke-linejoin="round" stroke-miterlimit="10"></path><path d="M56.308,225.5337c-1.118,4.209 -4.4233,11.394 -4.0961,15.974c0.1533,2.147 0.7396,-4.241 0.9947,-6.378c0.4861,-4.071 1.0422,-8.669 3.2184,-12.23c0.3862,-0.632 9.3182,10.518 10.1232,12.347c2.1543,4.896 -0.5429,3.964 -3.9206,5.559c-1.8772,0.887 -14.6874,5.408 -14.6874,4.213c0,-1.252 2.4151,-3.797 2.9843,-4.857c1.7819,-3.315 3.6936,-7.477 4.4472,-11.176c1.6095,-7.901 0.4096,8.358 0.4096,9.596c0,0.752 0.2921,5.15 -1.4629,5.15c-2.1964,0 1.4849,-4.134 2.2236,-6.203c0.7834,-2.193 3.9017,-8.658 3.1306,-10.971c-1.0921,-3.277 -1.6385,6.759 -1.7555,10.21c-0.0793,2.34 -1.2113,6.245 0.6144,2.458c0.5818,-1.207 2.4598,-6.154 2.4284,-5.793c-0.2647,3.045 -1.4921,6.184 -1.4921,9.246c0,3.133 1.653,-6.954 4.5057,-8.251c0.7093,-0.323 -0.2926,5.624 -0.2926,6.495c0,1.585 1.5214,-6.091 1.5214,-4.506c0,0.442 -0.6312,3.113 -1.1118,2.282c-1.9695,-3.401 -3.4513,-5.504 -7.49,-6.729c-1.8393,-0.558 -7.6859,-0.175 -5.7637,-0.175c1.2634,0 3.2477,-4.397 4.6519,-3.248c1.8631,1.524 -0.6938,6.39 -1.2873,8.046c-0.9718,2.711 -1.5803,-1.102 0.8192,-0.819c2.5002,0.294 -0.0506,9.526 1.3459,7.431c0.6481,-0.972 2.6113,-5.768 2.5454,-5.208c-1.2748,10.836 -1.0095,-2.962 1.0825,0.176" fill="none" stroke-opacity="0.5" stroke="#00adb5" stroke-linecap="round" stroke-linejoin="round" stroke-miterlimit="10"></path><path d="M316.995,82.2877c6.7,-0.331 13.171,2.146 12.112,-5.793c-0.524,-3.934 -2.729,-10.3659 -1.58,-14.2196c1.221,-4.0915 8.712,-13.3185 2.312,-16.2088c-5.367,-2.4237 -12.381,4.4302 -13.371,9.0699c-0.412,1.9297 -0.324,7.9581 2.867,7.9581c2.412,0 3.952,-2.3677 6.057,-0.2633c2.751,2.751 3.242,5.2607 1.287,8.7187c-4.692,8.301 -23.255,-0.971 -13.254,-10.9716c1.371,-1.3708 6.793,-7.6575 9.363,-5.8515c3.535,2.4845 3.057,8.953 1.229,12.1711c-1.824,3.209 -8.516,6.57 -11.148,2.458c-1.3,-2.032 -0.678,-3.3942 1.492,-3.3942" fill="none" stroke-opacity="0.5" stroke="#00adb5" stroke-linecap="round" stroke-linejoin="round" stroke-miterlimit="10"></path><path d="M373.1,131.5727c0.618,-0.25 19.884,-9.761 18.988,-4.535c-0.481,2.804 -0.16,5.42 0.234,8.221c0.151,1.072 2.762,9.421 0.146,9.421c-4.874,0 -9.632,-2.448 -14.512,-1.521c-2.023,0.384 -6.052,1.77 -6.202,-1.463c-0.113,-2.425 -2.127,-13.324 2.662,-12.259c3.948,0.877 4.119,-2.256 1.317,4.71c-0.398,0.989 -3.013,8.42 -2.575,8.075c4.381,-3.442 6.784,-10.06 10.796,-14.073c2.506,-2.505 -1.789,7.551 -2.311,8.807c-2.666,6.418 4.148,-5.439 4.915,-6.612c3.368,-5.151 0.811,4.07 0.293,5.588c-1.558,4.563 3.231,-3.957 5.149,-5.091c6.356,-3.756 0.351,9.216 -0.995,6.525" fill="none" stroke-opacity="0.5" stroke="#00adb5" stroke-linecap="round" stroke-linejoin="round" stroke-miterlimit="10"></path><path d="M321.208,230.7997c0.302,7.741 0.167,11.964 6.729,7.08c1.862,-1.385 1.071,1.893 0.614,2.692c-0.762,1.335 -5.233,8.044 -0.731,5.471c1.14,-0.651 4.213,-1.951 4.213,0.556c0,0.396 -1.378,5.24 -0.029,3.891c2.21,-2.21 2.25,-10.542 2.37,-13.78c0.026,-0.707 0.335,-1.529 -0.293,-1.17c-3.228,1.844 -4.761,11.502 -6.437,15.272c-1.446,3.255 -5.617,-0.58 -8.016,-2.106c-4.547,-2.894 -1.688,-0.839 -1.58,-1.054" fill="none" stroke-opacity="0.5" stroke="#00adb5" stroke-linecap="round" stroke-linejoin="round" stroke-miterlimit="10"></path><path d="M284.87,299.7897c-0.02,0.245 -0.638,15.363 -0.527,8.016c0.034,-2.242 -0.031,-4.486 0,-6.729c0.087,-6.369 1.224,-3.414 3.979,-0.79c1.263,1.203 5.898,3.8 5.149,6.232c-0.22,0.717 -7.66,2.012 -8.836,2.458c-0.881,0.334 -6.085,3.611 -6.085,3.452c0,-3.913 1.378,-8.148 1.843,-12.054c0.985,-8.271 6.708,13.87 7.08,8.28c0.088,-1.316 0.03,-9.151 0.03,-7.197c0,1.454 1.053,9.21 1.053,4.125c0,-1.151 0,-2.302 0,-3.453c0,-0.542 0.296,2.055 0.497,1.551c0.73,-1.824 -0.497,-5.492 -0.497,-1.024c0,5.016 -1.406,1.404 -4.476,1.404c-2.627,0 -4.131,9.626 -2.78,7.373c1.184,-1.972 -1.148,-10.005 -0.117,-5.88c0.54,2.159 1.837,-0.228 2.633,-1.024" fill="none" stroke-opacity="0.5" stroke="#00adb5" stroke-linecap="round" stroke-linejoin="round" stroke-miterlimit="10"></path><ellipse cx="177.4449" cy="516.5905" rx="174" ry="12" fill-opacity="0.5" fill="#000000" stroke-miterlimit="10"></ellipse><path d="M289.8689,236.4332c-2.442,-0.8912 -4.769,-2.1936 -6.891,-4.002c-16.024,-13.6512 -9.153,-34.2471 0.544,-44.9698c9.698,-10.7227 69.02,-6.4456 41.035,43.2281c-0.118,0.0711 -0.238,0.1426 -0.36,0.2145c-3.129,9.9555 -0.49,18.4949 2.676,28.7399c1.291,4.179 2.67,8.642 3.781,13.6l-29.68,-2.126c-8.158,-11.078 -11.25,-22.244 -11.105,-34.6847z" fill="#f5b9ab" fill-rule="evenodd" stroke-miterlimit="10"></path><path d="M282.9779,232.4312l-0.454,0.5324zM289.8689,236.4332l0.24,-0.6571c0.279,0.1017 0.463,0.3684 0.46,0.6653zM283.5219,187.4614l0.519,0.4691zM324.5569,230.6895l0.61,0.3433c-0.06,0.1053 -0.145,0.1935 -0.249,0.2559zM324.1969,230.904l-0.667,-0.2097c0.052,-0.1654 0.163,-0.3056 0.313,-0.3934zM326.8729,259.6439l-0.669,0.207zM330.6539,273.2439l0.682,-0.153c0.049,0.216 -0.008,0.442 -0.152,0.61c-0.144,0.167 -0.359,0.257 -0.58,0.241zM300.9739,271.1179l-0.05,0.697c-0.204,-0.014 -0.392,-0.118 -0.513,-0.283zM283.4309,231.8988c2.056,1.7511 4.308,3.0128 6.678,3.8773l-0.479,1.3141c-2.516,-0.9178 -4.916,-2.2609 -7.106,-4.1266zM284.0409,187.9305c-4.767,5.2714 -8.833,12.9689 -9.741,20.9962c-0.904,7.995 1.319,16.3162 9.131,22.9721l-0.907,1.0648c-8.211,-6.9953 -10.564,-15.7977 -9.614,-24.1941c0.946,-8.3642 5.164,-16.3259 10.094,-21.7773zM323.9479,230.3462c6.949,-12.3349 8.407,-21.7279 6.688,-28.7078c-1.714,-6.9611 -6.626,-11.6738 -12.765,-14.5794c-6.148,-2.9104 -13.479,-3.9798 -19.875,-3.6537c-3.195,0.1629 -6.136,0.6731 -8.562,1.4627c-2.439,0.7938 -4.296,1.85 -5.393,3.0625l-1.037,-0.9383c1.327,-1.4681 3.445,-2.6238 5.997,-3.4544c2.565,-0.8349 5.631,-1.3617 8.924,-1.5295c6.579,-0.3355 14.148,0.7585 20.545,3.7863c6.406,3.0325 11.683,8.0328 13.524,15.5093c1.837,7.4576 0.216,17.2269 -6.827,29.7289zM323.8429,230.3009c0.12,-0.0706 0.238,-0.1408 0.354,-0.2105l0.721,1.1983c-0.12,0.0723 -0.242,0.1452 -0.367,0.2183zM326.2039,259.8509c-3.156,-10.216 -5.878,-18.9629 -2.674,-29.1566l1.334,0.4194c-3.054,9.7173 -0.498,18.0492 2.677,28.3242zM329.9709,273.3969c-1.104,-4.927 -2.475,-9.365 -3.767,-13.546l1.337,-0.413c1.29,4.176 2.677,8.664 3.795,13.653zM301.0239,270.4199l29.68,2.127l-0.1,1.395l-29.68,-2.127zM290.5689,236.4414c-0.144,12.3005 2.907,23.3155 10.968,34.2615l-1.126,0.829c-8.254,-11.208 -11.389,-22.525 -11.241,-35.1069z" fill="#000000" stroke-miterlimit="10"></path><path d="M329.8819,200.6924c4.644,6.4615 -0.358,22.4202 -4.049,26.4118c30.583,-16.9694 11.221,-55.2563 1.785,-48.2745c-1.538,-14.1552 -17.78,-19.1495 -28.853,-7.1779c-27.76,-22.4182 -29.221,15.7817 -19.422,21.5911c9.798,5.8093 21.686,0.277 27.855,3.2727c6.17,2.9957 9.977,21.1417 11.975,11.0704c1.999,-10.0714 4.903,-14.9705 10.709,-6.8936z" fill="#00adb5" stroke="#000000" stroke-width="1.3989" stroke-miterlimit="10"></path><path d="M357.3299,482.5609l-43.049,-3.124l10.36,-115.876c0,0 -49.946,-118.359 -7.071,-118.359c60.581,0 80.839,93.336 80.084,118.359c-0.756,25.023 -40.324,119 -40.324,119z" fill="#eeeeee" stroke="#000000" stroke-width="1.3989" stroke-miterlimit="10"></path><path d="M313.9549,484.4489l0.602,-5.232l43.352,1.742l-0.956,8.408c-1.545,13.594 -15.161,22.36 -28.176,18.14c-9.799,-3.178 -15.999,-12.824 -14.822,-23.058z" fill="#f5b9ab" stroke="#000000" stroke-width="1.3989" stroke-linejoin="round" stroke-miterlimit="10"></path><path d="M251.4689,399.1739c-28.003,-27.151 6.797,-117.086 12.473,-127.789c8.263,-15.252 33.066,-41.7852 66.168,-25.901c50.057,24.02 27.183,142.868 18.185,184.066z" fill="#eeeeee" stroke="#000000" stroke-width="1.3989" stroke-miterlimit="10"></path><path d="M33.4121,493.4289l-4.5126,-40.792c0,0 104.7694,-33.954 191.1164,-46.694l118.558,10.241c17.809,42.084 9.026,119.426 -123.06,83.869z" fill="#00adb5" stroke="#000000" stroke-width="1.3989" stroke-miterlimit="10"></path><path d="M160.3669,421.9609l-18.615,57.896l-39.056,-1.908l-17.821,-108.006c-2.9523,-17.892 10.8517,-34.161 28.986,-34.161h24.164l1.669,-2.609l8.112,2.609c6.483,0.008 12.353,2.071 17.11,5.504l164.128,52.796c25.382,8.165 36.799,37.634 23.541,60.768l-25.108,43.814c-13.033,22.743 -43.505,28.087 -63.499,11.136z" fill="#00adb5" fill-rule="evenodd" stroke-miterlimit="10"></path><path d="M160.3669,421.9609l0.452,-0.534l-0.798,-0.676l-0.32,0.996zM141.7519,479.8569l-0.034,0.698l0.536,0.026l0.164,-0.51zM102.6959,477.9489l-0.691,0.113l0.092,0.558l0.564,0.027zM84.8749,369.9429l0.6901,-0.114zM113.8609,335.7819v0.7zM138.0249,335.7819v0.7h0.383l0.206,-0.323zM139.6939,333.1729l0.215,-0.666l-0.513,-0.165l-0.291,0.454zM147.8059,335.7819l-0.214,0.666l0.104,0.034h0.109zM164.9159,341.2859l-0.409,0.567l0.09,0.065l0.105,0.034zM329.0439,394.0819l0.214,-0.666zM352.5849,454.8499l0.607,0.348zM327.4769,498.6639l-0.607,-0.348zM263.9779,509.7999l0.452,-0.534zM159.7009,421.7469l-18.615,57.895l1.332,0.429l18.615,-57.896zM141.7859,479.1579l-39.056,-1.908l-0.069,1.397l39.057,1.908zM103.3859,477.8349l-17.8209,-108.006l-1.3802,0.228l17.8201,108.005zM85.565,369.8289c-2.882,-17.466 10.5933,-33.347 28.2959,-33.347v-1.399c-18.5661,0 -32.6987,16.655 -29.6761,34.974zM113.8609,336.4819h24.164v-1.399h-24.164zM138.6139,336.1589l1.67,-2.609l-1.179,-0.754l-1.669,2.609zM139.4799,333.8389l8.112,2.609l0.428,-1.332l-8.111,-2.609zM147.8049,336.4819c6.332,0.007 12.059,2.021 16.702,5.371l0.819,-1.134c-4.873,-3.516 -10.885,-5.628 -17.519,-5.636zM164.7019,341.9519l164.127,52.796l0.429,-1.332l-164.127,-52.796zM328.8289,394.7479c24.959,8.028 36.186,37.006 23.149,59.755l1.214,0.695c13.478,-23.52 1.872,-53.481 -23.934,-61.782zM351.9779,454.5029l-25.108,43.813l1.214,0.696l25.108,-43.814zM326.8699,498.3159c-12.816,22.364 -42.779,27.619 -62.44,10.95l-0.905,1.067c20.328,17.234 51.308,11.801 64.559,-11.321zM264.4299,509.2659l-103.611,-87.839l-0.904,1.068l103.61,87.838z" fill="#000000" stroke-miterlimit="10"></path><path d="M102.2459,477.5079l39.938,2.362l3.096,33.527c0,0 -35.036,-1.016 -56.2899,-7.664l14.2859,-7.021z" fill="#eeeeee" stroke="#000000" stroke-width="1.3989" stroke-linejoin="round" stroke-miterlimit="10"></path><path d="M107.0137,230.305c-0.2871,-1.0716 -0.5199,-1.9403 -0.5199,-1.9403l-17.7077,4.7448c0,0 0.2328,0.8687 0.5199,1.9403l24.2657,90.5608c0.2871,1.0716 0.5199,1.9403 0.5199,1.9403l17.7077,-4.7448c0,0 -0.2328,-0.8687 -0.5199,-1.9403z" fill="#eeeeee" stroke="#000000" stroke-width="1.3989" stroke-miterlimit="10"></path><path d="M205.9722,336.3223c1.1094,0 2.0088,0 2.0088,0v-18.3324c0,0 -0.8994,0 -2.0088,0h-93.7554c-1.1094,0 -2.0088,0 -2.0088,0v18.3324c0,0 0.8994,0 2.0088,0z" fill="#00adb5" stroke="#000000" stroke-width="1.3989" stroke-miterlimit="10"></path><path d="M29.2103,452.6669l4.9398,40.782l-29.8113,8.228c0,0 -5.6167,-35.139 -2.8949,-57.584l9.8453,12.935z" fill="#eeeeee" stroke="#000000" stroke-width="1.3989" stroke-linejoin="round" stroke-miterlimit="10"></path><path d="M177.2519,347.1869l22.372,-37.277l68.594,37.351c-3.145,-43.107 26.442,-105.143 57.511,-101.364c54.505,6.628 14.35,140.976 -21.355,164.658c-35.706,23.681 -127.122,-63.368 -127.122,-63.368z" fill="#eeeeee" stroke-miterlimit="10"></path><path d="M347.4319,328.3489c-8.436,35.347 -26.241,71.052 -43.058,82.206c-35.706,23.681 -127.122,-63.368 -127.122,-63.368l22.372,-37.277l68.594,37.351l23.314,-58.489" fill="none" stroke="#000000" stroke-width="1.3989" stroke-miterlimit="10"></path><path d="M195.5509,307.0819l4.285,3.063l-22.54,37.072l-6.89,-4.911c-11.141,-7.942 -12.208,-24.101 -2.207,-33.438c7.53,-7.03 18.972,-7.777 27.352,-1.786z" fill="#f5b9ab" stroke="#000000" stroke-width="1.3989" stroke-linejoin="round" stroke-miterlimit="10"></path></svg>