<svg xmlns="http://www.w3.org/2000/svg" width="451" height="354" xmlns:xlink="http://www.w3.org/1999/xlink"><ellipse cx="275.6054" cy="341.8832" rx="116" ry="12" fill-opacity="0.5" fill="#000000" stroke-miterlimit="10"></ellipse><path d="M2,114.8985c6.7675,-12.0418 13.1644,-28.1862 29.8886,-23.77c7.947,2.0985 14.1221,13.7728 13.6364,21.1954c-0.403,6.1571 1.3324,13.9335 -5.1155,17.7669c-5.0646,3.011 -11.4649,2.5833 -15.4587,-2.0781c-11.3417,-13.2376 9.6159,-22.5127 20.0081,-20.4874c14.1847,2.7643 30.6216,37.5904 18.2668,48.5898c-10.593,9.4307 -17.5627,-5.0414 -10.1636,-13.6253c10.4084,-12.0752 19.9825,-12.4582 32.086,0.4568c9.4505,10.084 6.6083,27.8824 -1.0169,37.2453c-1.5837,1.9446 -7.5111,15.5564 -8.9423,14.1915c-14.1225,-13.4657 10.8974,-33.3052 24.8004,-30.4843c15.974,3.241 32.1,6.7001 42.658,19.1599c5.678,6.7006 16.158,30.6724 14.144,22.1706c-2.52,-10.6383 -4.939,-25.2369 -0.465,-35.8327c1.332,-3.1529 5.336,-13.3224 1.955,-3.4515c-3.482,10.1658 -6.789,19.0404 -8.206,29.1348c-0.315,2.2459 2.647,5.433 3.658,7.3379c0.856,1.6142 -5.808,-0.4592 -6.604,-0.541c-6.876,-0.7036 -13.16,1.9059 -19.051,5.1491c-5.258,2.8953 -11.276,8.3283 -15.241,6.3968" fill="none" stroke-opacity="0.2" stroke="#00adb5" stroke-width="4" stroke-linecap="round" stroke-linejoin="round" stroke-miterlimit="10"></path><path d="M317.3221,337.9434c-1.9415,0 -3.5154,0 -3.5154,0v-92.9437c0,0 1.5739,0 3.5154,0h38.0002c1.9415,0 3.5154,0 3.5154,0v92.9437c0,0 -1.5739,0 -3.5154,0z" fill="#00adb5" stroke="#000000" stroke-width="1.6449" stroke-linejoin="round" stroke-miterlimit="10"></path><path d="M199.5209,337.944c-1.9415,0 -3.5154,0 -3.5154,0v-66.1053c0,0 1.5739,0 3.5154,0h38.0002c1.9415,0 3.5154,0 3.5154,0v66.1053c0,0 -1.5739,0 -3.5154,0z" fill="#eeeeee" stroke="#000000" stroke-width="1.6449" stroke-linejoin="round" stroke-miterlimit="10"></path><path d="M408.4641,337.9437c-1.9415,0 -3.5154,0 -3.5154,0v-195.974c0,0 1.5739,0 3.5154,0h38.0002c1.9415,0 3.5154,0 3.5154,0v195.974c0,0 -1.5739,0 -3.5154,0z" fill="#00adb5" stroke="#000000" stroke-width="1.6449" stroke-linejoin="round" stroke-miterlimit="10"></path><path d="M255.7793,118.1127h46.2994c0,0 -7.379,67.433 -17.4218,78.489c-10.0425,11.055 -62.6014,41.376 -62.6014,41.376l-17.7004,-10.864l32.9973,-51.967c0,0 -3.6288,-20.265 18.4269,-57.034z" fill="#00adb5" stroke="#000000" stroke-width="1.3989" stroke-miterlimit="10"></path><path d="M222.804,237.3697l-18.4489,-10.253l-9.3371,10.053c0,0 15.7403,9.123 26.7219,12.699l-4.651,-6.135z" fill="#eeeeee" stroke="#000000" stroke-width="1.3989" stroke-linejoin="round" stroke-miterlimit="10"></path><path d="M255.9767,117.1297l50.587,-0.067c0,0 28.122,24.73 31.665,39.239c3.543,14.51 -0.497,67.166 -0.497,67.166l-20.446,9.04l-21.108,-55.617c0,0 -22.0693,-20.906 -40.201,-59.761z" fill="#00adb5" stroke-miterlimit="10"></path><path d="M255.9767,117.1297l-0.001,-0.699c-0.2388,0 -0.461,0.122 -0.5892,0.324c-0.1282,0.201 -0.1447,0.454 -0.0437,0.671zM306.5637,117.0627l0.462,-0.525l-0.198,-0.174h-0.265zM337.7317,223.4677l0.282,0.64l0.383,-0.169l0.032,-0.417zM317.2857,232.5077l-0.654,0.248l0.262,0.69l0.675,-0.298zM296.1777,176.8907l0.654,-0.249l-0.057,-0.149l-0.116,-0.11zM255.9776,117.8287l50.5871,-0.066l-0.002,-1.399l-50.587,0.067zM337.4487,222.8287l-20.446,9.039l0.566,1.28l20.445,-9.04zM317.9397,232.2597l-21.108,-55.618l-1.308,0.497l21.108,55.617zM296.1777,176.8907c0.481,-0.508 0.481,-0.508 0.481,-0.508c0,0 -0.001,0 -0.001,-0.001c0,0 -0.001,-0.001 -0.002,-0.002c-0.003,-0.002 -0.006,-0.006 -0.011,-0.01c-0.01,-0.01 -0.026,-0.025 -0.046,-0.044c-0.041,-0.04 -0.103,-0.099 -0.184,-0.179c-0.163,-0.16 -0.407,-0.401 -0.723,-0.722c-0.633,-0.641 -1.56,-1.604 -2.7302,-2.881c-2.3402,-2.553 -5.6526,-6.366 -9.5314,-11.391c-7.7579,-10.049 -17.7792,-24.946 -26.8196,-44.319l-1.2677,0.592c9.0913,19.482 19.1705,34.466 26.98,44.582c3.9049,5.059 7.243,8.901 9.6073,11.482c1.1822,1.29 2.1206,2.264 2.7656,2.918c0.322,0.326 0.571,0.573 0.74,0.738c0.085,0.083 0.149,0.145 0.193,0.187c0.022,0.021 0.038,0.037 0.05,0.048c0.005,0.006 0.01,0.01 0.013,0.013c0.001,0.001 0.002,0.002 0.003,0.003c0.001,0 0.001,0.001 0.001,0.001c0,0 0.001,0 0.482,-0.507zM306.5637,117.0627c-0.461,0.526 -0.461,0.526 -0.461,0.526c0,0 0,0 0.001,0.001c0,0 0.002,0.001 0.003,0.003c0.003,0.003 0.008,0.007 0.015,0.013c0.013,0.011 0.033,0.029 0.059,0.052c0.053,0.047 0.132,0.117 0.234,0.208c0.206,0.184 0.508,0.455 0.894,0.806c0.773,0.702 1.882,1.721 3.224,2.99c2.685,2.539 6.3,6.073 10.024,10.057c3.726,3.987 7.551,8.414 10.662,12.739c3.121,4.341 5.478,8.518 6.33,12.01l1.359,-0.331c-0.918,-3.763 -3.406,-8.118 -6.554,-12.495c-3.158,-4.392 -7.027,-8.868 -10.775,-12.878c-3.749,-4.011 -7.386,-7.566 -10.085,-10.118c-1.349,-1.276 -2.465,-2.302 -3.244,-3.009c-0.39,-0.354 -0.695,-0.628 -0.903,-0.814c-0.104,-0.093 -0.184,-0.164 -0.238,-0.212c-0.027,-0.024 -0.048,-0.042 -0.061,-0.054c-0.007,-0.006 -0.013,-0.011 -0.016,-0.014c-0.002,-0.002 -0.003,-0.003 -0.004,-0.004c-0.001,0 -0.001,0 -0.001,0c-0.001,-0.001 -0.001,-0.001 -0.463,0.524zM337.5487,156.4677c0.866,3.543 1.278,9.483 1.398,16.462c0.119,6.959 -0.054,14.887 -0.337,22.37c-0.283,7.482 -0.677,14.511 -1.001,19.67c-0.161,2.58 -0.305,4.692 -0.408,6.158c-0.052,0.734 -0.094,1.306 -0.122,1.694c-0.015,0.194 -0.026,0.343 -0.033,0.442c-0.004,0.05 -0.007,0.088 -0.009,0.113c-0.001,0.013 -0.002,0.022 -0.002,0.029c0,0.003 -0.001,0.005 -0.001,0.007v0.001c0,0.001 0,0.001 0.698,0.054c0.697,0.054 0.697,0.054 0.697,0.053c0,0 0,-0.001 0,-0.002c0,-0.001 0,-0.004 0.001,-0.007c0,-0.006 0.001,-0.016 0.002,-0.029c0.002,-0.025 0.005,-0.063 0.008,-0.114c0.008,-0.1 0.019,-0.249 0.034,-0.444c0.028,-0.39 0.07,-0.963 0.122,-1.698c0.104,-1.47 0.248,-3.585 0.41,-6.169c0.323,-5.167 0.718,-12.209 1.002,-19.705c0.284,-7.495 0.457,-15.452 0.337,-22.447c-0.119,-6.974 -0.53,-13.058 -1.437,-16.769z" fill="#000000" stroke-miterlimit="10"></path><path d="M300.3467,34.6281c1.15,-0.4198 2.246,-1.0333 3.246,-1.8852c7.548,-6.4305 4.311,-16.1323 -0.257,-21.1832c-4.567,-5.051 -32.5113,-3.0362 -19.3292,20.3627c0.0555,0.0335 0.1121,0.0671 0.1697,0.101c1.4737,4.6895 0.2308,8.7119 -1.2605,13.5381c-0.6082,1.9684 -1.2578,4.0706 -1.7812,6.4063l13.9812,-1.0018c3.842,-5.2179 5.299,-10.4777 5.231,-16.3379z" fill="#f5b9ab" fill-rule="evenodd" stroke-miterlimit="10"></path><path d="M303.5927,32.7429l0.533,0.626v0zM300.3467,34.6281l-0.282,-0.7727c-0.328,0.1197 -0.545,0.4333 -0.541,0.7823zM303.3357,11.5597l0.61,-0.5517zM284.0065,31.9224l-0.7165,0.4037c0.0697,0.1239 0.1704,0.2275 0.2922,0.3008zM284.1762,32.0234l0.7846,-0.2466c-0.0611,-0.1945 -0.1923,-0.3593 -0.368,-0.4625zM282.9157,45.5615l-0.7858,-0.2428v0zM281.1345,51.9678l-0.8025,-0.1798c-0.0569,0.2537 0.0096,0.5194 0.1793,0.7165c0.1697,0.197 0.4226,0.3022 0.682,0.2836zM295.1157,50.966l0.058,0.8204c0.24,-0.0172 0.461,-0.1388 0.604,-0.3327zM303.0597,32.1168c-0.921,0.7846 -1.931,1.3502 -2.995,1.7386l0.563,1.5453c1.237,-0.4511 2.419,-1.1125 3.498,-2.0318zM302.7257,12.1113c2.189,2.4197 4.051,5.9525 4.465,9.6151c0.41,3.6246 -0.592,7.3748 -4.131,10.3904l1.066,1.2521c4.009,-3.4148 5.163,-7.7308 4.699,-11.8274c-0.459,-4.0586 -2.499,-7.9022 -4.879,-10.5335zM284.723,31.5188c-3.2401,-5.7515 -3.8694,-10.0435 -3.1012,-13.1631c0.7627,-3.0974 2.9481,-5.216 5.7452,-6.54c2.8087,-1.3295 6.1778,-1.8246 9.1267,-1.6743c1.47,0.075 2.811,0.3094 3.905,0.6654c1.109,0.3609 1.892,0.8235 2.327,1.3045l1.22,-1.1033c-0.706,-0.7816 -1.796,-1.361 -3.038,-1.7653c-1.257,-0.4092 -2.745,-0.6632 -4.331,-0.744c-3.1635,-0.1613 -6.813,0.3626 -9.9135,1.8303c-3.1121,1.4731 -5.7266,3.9299 -6.6386,7.6334c-0.9065,3.6812 -0.0855,8.4157 3.2654,14.3637zM284.5928,31.3143c-0.0551,-0.0324 -0.1091,-0.0645 -0.162,-0.0964l-0.8486,1.409c0.0581,0.0351 0.1172,0.0702 0.1773,0.1055zM283.7015,45.8043c1.4806,-4.7918 2.821,-9.0579 1.2593,-14.0275l-1.5692,0.4931c1.3857,4.4095 0.2403,8.1881 -1.2617,13.0488zM281.937,52.1476c0.5153,-2.2994 1.1554,-4.3721 1.7645,-6.3433l-1.5716,-0.4856c-0.6074,1.9657 -1.2664,4.0973 -1.7979,6.4693zM295.0567,50.1457l-13.981,1.0018l0.1176,1.6406l13.9804,-1.0017zM299.5237,34.6377c0.067,5.6946 -1.342,10.7769 -5.071,15.8407l1.325,0.9753c3.956,-5.3722 5.461,-10.8095 5.391,-16.8353z" fill="#000000" stroke-miterlimit="10"></path><path d="M281.4982,17.7928c-2.1877,3.0437 0.1687,10.5611 1.9073,12.4413c-14.4061,-7.9934 -5.2858,-26.0286 -0.8408,-22.7398c0.7243,-6.6678 8.3754,-9.0204 13.591,-3.3812c13.077,-10.5601 13.765,7.4341 9.149,10.1706c-4.615,2.7365 -10.215,0.1305 -13.1214,1.5416c-2.9061,1.4111 -4.6994,9.9589 -5.6408,5.2147c-0.9414,-4.7441 -2.3096,-7.0519 -5.0443,-3.2472z" fill="#00adb5" stroke="#000000" stroke-width="1.6449" stroke-miterlimit="10"></path><path d="M308.2527,118.2087c15.079,-10.029 8.786,-44.6837 6.641,-54.5367c-0.386,-1.7727 -0.958,-3.4733 -1.651,-5.1497c-5.7,-13.7785 -19.7612,-24.8763 -33.2285,-18.4759c-28.6858,13.6331 -24.4212,57.1203 -24.1504,78.4883z" fill="#eeeeee" stroke="#000000" stroke-width="1.6449" stroke-linejoin="round" stroke-miterlimit="10"></path><path d="M353.6077,71.3159l-12.102,-14.7692l-40.779,28.5303l-13.1798,-26.5294l-17.0663,26.5292c0,0 18.4886,28.7149 27.8801,27.8809c17.116,-1.521 55.247,-41.6418 55.247,-41.6418z" fill="#eeeeee" stroke-miterlimit="10"></path><path d="M288.4499,60.4834l12.1618,23.7792l40.893,-27.7154l12.103,14.7692c0,0 -35.946,39.8723 -56.952,41.7383c-6.6111,0.588 -25.8722,-28.2651 -25.8722,-28.2651" fill="none" stroke="#000000" stroke-width="1.6449" stroke-miterlimit="10"></path><path d="M345.5287,53.8817l-4.793,3.0765l12.033,15.2453l3.784,-3.0661c4.027,-3.262 4.665,-9.1628 1.428,-13.21c-3.014,-3.7698 -8.389,-4.6529 -12.452,-2.0457z" fill="#f5b9ab" stroke="#000000" stroke-width="1.6449" stroke-linejoin="round" stroke-miterlimit="10"></path><polygon points="337.9797,221.5497 317.2857,232.3387 320.8457,245.8207 348.4767,228.8047 340.3467,229.9087" fill="#eeeeee" stroke="#000000" stroke-width="1.3989" stroke-linejoin="round" stroke-miterlimit="10"></polygon></svg>